<?xml version="1.0" encoding="UTF-8" standalone="no"?>
<!DOCTYPE svg PUBLIC "-//W3C//DTD SVG 1.1//EN"
 "http://www.w3.org/Graphics/SVG/1.1/DTD/svg11.dtd">
<!-- Generated by graphviz version 2.43.0 (0)
 -->
<!-- Title: AItem Pages: 1 -->
<svg width="182pt" height="281pt"
 viewBox="0.00 0.00 182.00 281.00" xmlns="http://www.w3.org/2000/svg" xmlns:xlink="http://www.w3.org/1999/xlink">
<g id="graph0" class="graph" transform="scale(1 1) rotate(0) translate(4 277)">
<title>AItem</title>
<!-- Node1 -->
<g id="node1" class="node">
<title>Node1</title>
<g id="a_node1"><a xlink:title="Base class for all items in the game.">
<polygon fill="#bfbfbf" stroke="black" points="0,-0.5 0,-156.5 170,-156.5 170,-0.5 0,-0.5"/>
<text text-anchor="middle" x="85" y="-144.5" font-family="Helvetica,sans-Serif" font-size="10.00">AItem</text>
<polyline fill="none" stroke="black" points="0,-137.5 170,-137.5 "/>
<text text-anchor="start" x="8" y="-125.5" font-family="Helvetica,sans-Serif" font-size="10.00"># Mesh</text>
<text text-anchor="start" x="8" y="-114.5" font-family="Helvetica,sans-Serif" font-size="10.00"># ItemRegistryType</text>
<text text-anchor="start" x="8" y="-103.5" font-family="Helvetica,sans-Serif" font-size="10.00"># TableRowName</text>
<polyline fill="none" stroke="black" points="0,-96.5 170,-96.5 "/>
<text text-anchor="start" x="8" y="-84.5" font-family="Helvetica,sans-Serif" font-size="10.00">+ AItem()</text>
<text text-anchor="start" x="8" y="-73.5" font-family="Helvetica,sans-Serif" font-size="10.00">+ GetItemData_Copy()</text>
<text text-anchor="start" x="8" y="-62.5" font-family="Helvetica,sans-Serif" font-size="10.00">+ GetItemData()</text>
<text text-anchor="start" x="8" y="-51.5" font-family="Helvetica,sans-Serif" font-size="10.00">+ GetMesh()</text>
<text text-anchor="start" x="8" y="-40.5" font-family="Helvetica,sans-Serif" font-size="10.00"># BeginPlay()</text>
<text text-anchor="start" x="8" y="-29.5" font-family="Helvetica,sans-Serif" font-size="10.00"># Tick()</text>
<text text-anchor="start" x="8" y="-18.5" font-family="Helvetica,sans-Serif" font-size="10.00"># OnItemRegistryFound()</text>
<text text-anchor="start" x="8" y="-7.5" font-family="Helvetica,sans-Serif" font-size="10.00">&#45; ApplyItemDataFromRegistry()</text>
</a>
</g>
</g>
<!-- Node2 -->
<g id="node2" class="node">
<title>Node2</title>
<g id="a_node2"><a xlink:title=" ">
<polygon fill="none" stroke="#bfbfbf" points="16.5,-210 16.5,-267 65.5,-267 65.5,-210 16.5,-210"/>
<text text-anchor="middle" x="41" y="-255" font-family="Helvetica,sans-Serif" font-size="10.00">AActor</text>
<polyline fill="none" stroke="#bfbfbf" points="16.5,-248 65.5,-248 "/>
<text text-anchor="middle" x="41" y="-236" font-family="Helvetica,sans-Serif" font-size="10.00"> </text>
<polyline fill="none" stroke="#bfbfbf" points="16.5,-229 65.5,-229 "/>
<text text-anchor="middle" x="41" y="-217" font-family="Helvetica,sans-Serif" font-size="10.00"> </text>
</a>
</g>
</g>
<!-- Node2&#45;&gt;Node1 -->
<g id="edge1" class="edge">
<title>Node2&#45;&gt;Node1</title>
<path fill="none" stroke="midnightblue" d="M51.45,-199.98C55.09,-186.9 59.32,-171.7 63.53,-156.6"/>
<polygon fill="none" stroke="midnightblue" points="47.98,-199.41 48.66,-209.98 54.72,-201.28 47.98,-199.41"/>
</g>
<!-- Node3 -->
<g id="node3" class="node">
<title>Node3</title>
<g id="a_node3"><a xlink:href="structFItemData.html" target="_top" xlink:title=" ">
<polygon fill="none" stroke="black" points="84,-204.5 84,-272.5 174,-272.5 174,-204.5 84,-204.5"/>
<text text-anchor="middle" x="129" y="-260.5" font-family="Helvetica,sans-Serif" font-size="10.00">FItemData</text>
<polyline fill="none" stroke="black" points="84,-253.5 174,-253.5 "/>
<text text-anchor="start" x="92" y="-241.5" font-family="Helvetica,sans-Serif" font-size="10.00">+ ItemName</text>
<text text-anchor="start" x="92" y="-230.5" font-family="Helvetica,sans-Serif" font-size="10.00">+ ItemNameUI</text>
<polyline fill="none" stroke="black" points="84,-223.5 174,-223.5 "/>
<text text-anchor="middle" x="129" y="-211.5" font-family="Helvetica,sans-Serif" font-size="10.00"> </text>
</a>
</g>
</g>
<!-- Node3&#45;&gt;Node1 -->
<g id="edge2" class="edge">
<title>Node3&#45;&gt;Node1</title>
<path fill="none" stroke="#404040" d="M119.78,-204.38C116.79,-193.64 113.31,-181.17 109.74,-168.35"/>
<polygon fill="none" stroke="#404040" points="109.67,-168.08 104.2,-163.37 106.45,-156.52 111.91,-161.22 109.67,-168.08"/>
<text text-anchor="middle" x="142" y="-178" font-family="Helvetica,sans-Serif" font-size="10.00"> #ItemData</text>
</g>
</g>
</svg>
