<?xml version="1.0" encoding="UTF-8" standalone="no"?>
<!DOCTYPE svg PUBLIC "-//W3C//DTD SVG 1.1//EN"
 "http://www.w3.org/Graphics/SVG/1.1/DTD/svg11.dtd">
<!-- Generated by graphviz version 2.43.0 (0)
 -->
<!-- Title: AWeapon Pages: 1 -->
<svg width="178pt" height="397pt"
 viewBox="0.00 0.00 178.00 397.00" xmlns="http://www.w3.org/2000/svg" xmlns:xlink="http://www.w3.org/1999/xlink">
<g id="graph0" class="graph" transform="scale(1 1) rotate(0) translate(4 393)">
<title>AWeapon</title>
<!-- Node1 -->
<g id="node1" class="node">
<title>Node1</title>
<g id="a_node1"><a xlink:title="Base class for all weapon items.">
<polygon fill="#bfbfbf" stroke="black" points="12.5,-0.5 12.5,-90.5 157.5,-90.5 157.5,-0.5 12.5,-0.5"/>
<text text-anchor="middle" x="85" y="-78.5" font-family="Helvetica,sans-Serif" font-size="10.00">AWeapon</text>
<polyline fill="none" stroke="black" points="12.5,-71.5 157.5,-71.5 "/>
<text text-anchor="start" x="20.5" y="-59.5" font-family="Helvetica,sans-Serif" font-size="10.00"># WeaponItemData</text>
<polyline fill="none" stroke="black" points="12.5,-52.5 157.5,-52.5 "/>
<text text-anchor="start" x="20.5" y="-40.5" font-family="Helvetica,sans-Serif" font-size="10.00">+ AWeapon()</text>
<text text-anchor="start" x="20.5" y="-29.5" font-family="Helvetica,sans-Serif" font-size="10.00">+ GetWeaponData_Copy()</text>
<text text-anchor="start" x="20.5" y="-18.5" font-family="Helvetica,sans-Serif" font-size="10.00">+ GetWeaponData_Copy()</text>
<text text-anchor="start" x="20.5" y="-7.5" font-family="Helvetica,sans-Serif" font-size="10.00"># OnItemRegistryFound()</text>
</a>
</g>
</g>
<!-- Node2 -->
<g id="node2" class="node">
<title>Node2</title>
<g id="a_node2"><a xlink:href="classAItem.html" target="_top" xlink:title="Base class for all items in the game.">
<polygon fill="none" stroke="black" points="0,-127.5 0,-294.5 170,-294.5 170,-127.5 0,-127.5"/>
<text text-anchor="middle" x="85" y="-282.5" font-family="Helvetica,sans-Serif" font-size="10.00">AItem</text>
<polyline fill="none" stroke="black" points="0,-275.5 170,-275.5 "/>
<text text-anchor="start" x="8" y="-263.5" font-family="Helvetica,sans-Serif" font-size="10.00"># Mesh</text>
<text text-anchor="start" x="8" y="-252.5" font-family="Helvetica,sans-Serif" font-size="10.00"># ItemRegistryType</text>
<text text-anchor="start" x="8" y="-241.5" font-family="Helvetica,sans-Serif" font-size="10.00"># TableRowName</text>
<text text-anchor="start" x="8" y="-230.5" font-family="Helvetica,sans-Serif" font-size="10.00"># ItemData</text>
<polyline fill="none" stroke="black" points="0,-223.5 170,-223.5 "/>
<text text-anchor="start" x="8" y="-211.5" font-family="Helvetica,sans-Serif" font-size="10.00">+ AItem()</text>
<text text-anchor="start" x="8" y="-200.5" font-family="Helvetica,sans-Serif" font-size="10.00">+ GetItemData_Copy()</text>
<text text-anchor="start" x="8" y="-189.5" font-family="Helvetica,sans-Serif" font-size="10.00">+ GetItemData()</text>
<text text-anchor="start" x="8" y="-178.5" font-family="Helvetica,sans-Serif" font-size="10.00">+ GetMesh()</text>
<text text-anchor="start" x="8" y="-167.5" font-family="Helvetica,sans-Serif" font-size="10.00"># BeginPlay()</text>
<text text-anchor="start" x="8" y="-156.5" font-family="Helvetica,sans-Serif" font-size="10.00"># Tick()</text>
<text text-anchor="start" x="8" y="-145.5" font-family="Helvetica,sans-Serif" font-size="10.00"># OnItemRegistryFound()</text>
<text text-anchor="start" x="8" y="-134.5" font-family="Helvetica,sans-Serif" font-size="10.00">&#45; ApplyItemDataFromRegistry()</text>
</a>
</g>
</g>
<!-- Node2&#45;&gt;Node1 -->
<g id="edge1" class="edge">
<title>Node2&#45;&gt;Node1</title>
<path fill="none" stroke="midnightblue" d="M85,-117.22C85,-107.99 85,-98.95 85,-90.58"/>
<polygon fill="none" stroke="midnightblue" points="81.5,-117.29 85,-127.29 88.5,-117.29 81.5,-117.29"/>
</g>
<!-- Node3 -->
<g id="node3" class="node">
<title>Node3</title>
<g id="a_node3"><a xlink:title=" ">
<polygon fill="none" stroke="#bfbfbf" points="60.5,-331.5 60.5,-388.5 109.5,-388.5 109.5,-331.5 60.5,-331.5"/>
<text text-anchor="middle" x="85" y="-376.5" font-family="Helvetica,sans-Serif" font-size="10.00">AActor</text>
<polyline fill="none" stroke="#bfbfbf" points="60.5,-369.5 109.5,-369.5 "/>
<text text-anchor="middle" x="85" y="-357.5" font-family="Helvetica,sans-Serif" font-size="10.00"> </text>
<polyline fill="none" stroke="#bfbfbf" points="60.5,-350.5 109.5,-350.5 "/>
<text text-anchor="middle" x="85" y="-338.5" font-family="Helvetica,sans-Serif" font-size="10.00"> </text>
</a>
</g>
</g>
<!-- Node3&#45;&gt;Node2 -->
<g id="edge2" class="edge">
<title>Node3&#45;&gt;Node2</title>
<path fill="none" stroke="midnightblue" d="M85,-321.35C85,-313.08 85,-304.01 85,-294.74"/>
<polygon fill="none" stroke="midnightblue" points="81.5,-321.35 85,-331.35 88.5,-321.35 81.5,-321.35"/>
</g>
</g>
</svg>
