<?xml version="1.0" encoding="UTF-8" standalone="no"?>
<!DOCTYPE svg PUBLIC "-//W3C//DTD SVG 1.1//EN"
 "http://www.w3.org/Graphics/SVG/1.1/DTD/svg11.dtd">
<!-- Generated by graphviz version 2.43.0 (0)
 -->
<!-- Title: UKidRedSkeletalMeshComponent Pages: 1 -->
<svg width="207pt" height="160pt"
 viewBox="0.00 0.00 207.00 160.00" xmlns="http://www.w3.org/2000/svg" xmlns:xlink="http://www.w3.org/1999/xlink">
<g id="graph0" class="graph" transform="scale(1 1) rotate(0) translate(4 156)">
<title>UKidRedSkeletalMeshComponent</title>
<!-- Node1 -->
<g id="node1" class="node">
<title>Node1</title>
<g id="a_node1"><a xlink:title=" ">
<polygon fill="#bfbfbf" stroke="black" points="0,-0.5 0,-57.5 199,-57.5 199,-0.5 0,-0.5"/>
<text text-anchor="middle" x="99.5" y="-45.5" font-family="Helvetica,sans-Serif" font-size="10.00">UKidRedSkeletalMeshComponent</text>
<polyline fill="none" stroke="black" points="0,-38.5 199,-38.5 "/>
<text text-anchor="middle" x="99.5" y="-26.5" font-family="Helvetica,sans-Serif" font-size="10.00"> </text>
<polyline fill="none" stroke="black" points="0,-19.5 199,-19.5 "/>
<text text-anchor="start" x="8" y="-7.5" font-family="Helvetica,sans-Serif" font-size="10.00">+ UKidRedSkeletalMeshComponent()</text>
</a>
</g>
</g>
<!-- Node2 -->
<g id="node2" class="node">
<title>Node2</title>
<g id="a_node2"><a xlink:title=" ">
<polygon fill="none" stroke="#bfbfbf" points="26.5,-94.5 26.5,-151.5 172.5,-151.5 172.5,-94.5 26.5,-94.5"/>
<text text-anchor="middle" x="99.5" y="-139.5" font-family="Helvetica,sans-Serif" font-size="10.00">USkeletalMeshComponent</text>
<polyline fill="none" stroke="#bfbfbf" points="26.5,-132.5 172.5,-132.5 "/>
<text text-anchor="middle" x="99.5" y="-120.5" font-family="Helvetica,sans-Serif" font-size="10.00"> </text>
<polyline fill="none" stroke="#bfbfbf" points="26.5,-113.5 172.5,-113.5 "/>
<text text-anchor="middle" x="99.5" y="-101.5" font-family="Helvetica,sans-Serif" font-size="10.00"> </text>
</a>
</g>
</g>
<!-- Node2&#45;&gt;Node1 -->
<g id="edge1" class="edge">
<title>Node2&#45;&gt;Node1</title>
<path fill="none" stroke="midnightblue" d="M99.5,-84.21C99.5,-75.29 99.5,-65.95 99.5,-57.58"/>
<polygon fill="none" stroke="midnightblue" points="96,-84.4 99.5,-94.4 103,-84.4 96,-84.4"/>
</g>
</g>
</svg>
