<?xml version="1.0" encoding="UTF-8" standalone="no"?>
<!DOCTYPE svg PUBLIC "-//W3C//DTD SVG 1.1//EN"
 "http://www.w3.org/Graphics/SVG/1.1/DTD/svg11.dtd">
<!-- Generated by graphviz version 2.43.0 (0)
 -->
<!-- Title: AKidRedHUD Pages: 1 -->
<svg width="173pt" height="248pt"
 viewBox="0.00 0.00 173.00 248.00" xmlns="http://www.w3.org/2000/svg" xmlns:xlink="http://www.w3.org/1999/xlink">
<g id="graph0" class="graph" transform="scale(1 1) rotate(0) translate(4 244)">
<title>AKidRedHUD</title>
<!-- Node1 -->
<g id="node1" class="node">
<title>Node1</title>
<g id="a_node1"><a xlink:title=" ">
<polygon fill="#bfbfbf" stroke="black" points="0,-0.5 0,-145.5 165,-145.5 165,-0.5 0,-0.5"/>
<text text-anchor="middle" x="82.5" y="-133.5" font-family="Helvetica,sans-Serif" font-size="10.00">AKidRedHUD</text>
<polyline fill="none" stroke="black" points="0,-126.5 165,-126.5 "/>
<text text-anchor="start" x="8" y="-114.5" font-family="Helvetica,sans-Serif" font-size="10.00"># bEnableHUD</text>
<text text-anchor="start" x="8" y="-103.5" font-family="Helvetica,sans-Serif" font-size="10.00"># HUD_Class</text>
<text text-anchor="start" x="8" y="-92.5" font-family="Helvetica,sans-Serif" font-size="10.00"># PlayerHUDWidget</text>
<text text-anchor="start" x="8" y="-81.5" font-family="Helvetica,sans-Serif" font-size="10.00">&#45; GameStatsOverlayWidget</text>
<text text-anchor="start" x="8" y="-70.5" font-family="Helvetica,sans-Serif" font-size="10.00">&#45; GameStatsOverlayContainer</text>
<polyline fill="none" stroke="black" points="0,-63.5 165,-63.5 "/>
<text text-anchor="start" x="8" y="-51.5" font-family="Helvetica,sans-Serif" font-size="10.00">+ AKidRedHUD()</text>
<text text-anchor="start" x="8" y="-40.5" font-family="Helvetica,sans-Serif" font-size="10.00">+ InitializeHUD()</text>
<text text-anchor="start" x="8" y="-29.5" font-family="Helvetica,sans-Serif" font-size="10.00"># BeginPlay()</text>
<text text-anchor="start" x="8" y="-18.5" font-family="Helvetica,sans-Serif" font-size="10.00"># Tick()</text>
<text text-anchor="start" x="8" y="-7.5" font-family="Helvetica,sans-Serif" font-size="10.00">&#45; InitializeGameStatsOverlay()</text>
</a>
</g>
</g>
<!-- Node2 -->
<g id="node2" class="node">
<title>Node2</title>
<g id="a_node2"><a xlink:title=" ">
<polygon fill="none" stroke="#bfbfbf" points="59.5,-182.5 59.5,-239.5 105.5,-239.5 105.5,-182.5 59.5,-182.5"/>
<text text-anchor="middle" x="82.5" y="-227.5" font-family="Helvetica,sans-Serif" font-size="10.00">AHUD</text>
<polyline fill="none" stroke="#bfbfbf" points="59.5,-220.5 105.5,-220.5 "/>
<text text-anchor="middle" x="82.5" y="-208.5" font-family="Helvetica,sans-Serif" font-size="10.00"> </text>
<polyline fill="none" stroke="#bfbfbf" points="59.5,-201.5 105.5,-201.5 "/>
<text text-anchor="middle" x="82.5" y="-189.5" font-family="Helvetica,sans-Serif" font-size="10.00"> </text>
</a>
</g>
</g>
<!-- Node2&#45;&gt;Node1 -->
<g id="edge1" class="edge">
<title>Node2&#45;&gt;Node1</title>
<path fill="none" stroke="midnightblue" d="M82.5,-172.36C82.5,-164 82.5,-154.87 82.5,-145.66"/>
<polygon fill="none" stroke="midnightblue" points="79,-172.48 82.5,-182.48 86,-172.48 79,-172.48"/>
</g>
</g>
</svg>
