<?xml version="1.0" encoding="UTF-8" standalone="no"?>
<!DOCTYPE svg PUBLIC "-//W3C//DTD SVG 1.1//EN"
 "http://www.w3.org/Graphics/SVG/1.1/DTD/svg11.dtd">
<!-- Generated by graphviz version 2.43.0 (0)
 -->
<!-- Title: AGrenade Pages: 1 -->
<svg width="320pt" height="419pt"
 viewBox="0.00 0.00 319.50 419.00" xmlns="http://www.w3.org/2000/svg" xmlns:xlink="http://www.w3.org/1999/xlink">
<g id="graph0" class="graph" transform="scale(1 1) rotate(0) translate(4 415)">
<title>AGrenade</title>
<!-- Node1 -->
<g id="node1" class="node">
<title>Node1</title>
<g id="a_node1"><a xlink:title="Base class for all grenade items.">
<polygon fill="#bfbfbf" stroke="black" points="93.5,-0.5 93.5,-90.5 240.5,-90.5 240.5,-0.5 93.5,-0.5"/>
<text text-anchor="middle" x="167" y="-78.5" font-family="Helvetica,sans-Serif" font-size="10.00">AGrenade</text>
<polyline fill="none" stroke="black" points="93.5,-71.5 240.5,-71.5 "/>
<text text-anchor="middle" x="167" y="-59.5" font-family="Helvetica,sans-Serif" font-size="10.00"> </text>
<polyline fill="none" stroke="black" points="93.5,-52.5 240.5,-52.5 "/>
<text text-anchor="start" x="101.5" y="-40.5" font-family="Helvetica,sans-Serif" font-size="10.00">+ AGrenade()</text>
<text text-anchor="start" x="101.5" y="-29.5" font-family="Helvetica,sans-Serif" font-size="10.00">+ GetGrenadeData_Copy()</text>
<text text-anchor="start" x="101.5" y="-18.5" font-family="Helvetica,sans-Serif" font-size="10.00">+ GetGrenadeData()</text>
<text text-anchor="start" x="101.5" y="-7.5" font-family="Helvetica,sans-Serif" font-size="10.00"># OnItemRegistryFound()</text>
</a>
</g>
</g>
<!-- Node2 -->
<g id="node2" class="node">
<title>Node2</title>
<g id="a_node2"><a xlink:href="classAItem.html" target="_top" xlink:title="Base class for all items in the game.">
<polygon fill="none" stroke="black" points="0,-138.5 0,-294.5 170,-294.5 170,-138.5 0,-138.5"/>
<text text-anchor="middle" x="85" y="-282.5" font-family="Helvetica,sans-Serif" font-size="10.00">AItem</text>
<polyline fill="none" stroke="black" points="0,-275.5 170,-275.5 "/>
<text text-anchor="start" x="8" y="-263.5" font-family="Helvetica,sans-Serif" font-size="10.00"># Mesh</text>
<text text-anchor="start" x="8" y="-252.5" font-family="Helvetica,sans-Serif" font-size="10.00"># ItemRegistryType</text>
<text text-anchor="start" x="8" y="-241.5" font-family="Helvetica,sans-Serif" font-size="10.00"># TableRowName</text>
<polyline fill="none" stroke="black" points="0,-234.5 170,-234.5 "/>
<text text-anchor="start" x="8" y="-222.5" font-family="Helvetica,sans-Serif" font-size="10.00">+ AItem()</text>
<text text-anchor="start" x="8" y="-211.5" font-family="Helvetica,sans-Serif" font-size="10.00">+ GetItemData_Copy()</text>
<text text-anchor="start" x="8" y="-200.5" font-family="Helvetica,sans-Serif" font-size="10.00">+ GetItemData()</text>
<text text-anchor="start" x="8" y="-189.5" font-family="Helvetica,sans-Serif" font-size="10.00">+ GetMesh()</text>
<text text-anchor="start" x="8" y="-178.5" font-family="Helvetica,sans-Serif" font-size="10.00"># BeginPlay()</text>
<text text-anchor="start" x="8" y="-167.5" font-family="Helvetica,sans-Serif" font-size="10.00"># Tick()</text>
<text text-anchor="start" x="8" y="-156.5" font-family="Helvetica,sans-Serif" font-size="10.00"># OnItemRegistryFound()</text>
<text text-anchor="start" x="8" y="-145.5" font-family="Helvetica,sans-Serif" font-size="10.00">&#45; ApplyItemDataFromRegistry()</text>
</a>
</g>
</g>
<!-- Node2&#45;&gt;Node1 -->
<g id="edge1" class="edge">
<title>Node2&#45;&gt;Node1</title>
<path fill="none" stroke="midnightblue" d="M126.88,-129.19C133.35,-115.85 139.8,-102.57 145.56,-90.68"/>
<polygon fill="none" stroke="midnightblue" points="123.62,-127.89 122.4,-138.42 129.91,-130.95 123.62,-127.89"/>
</g>
<!-- Node3 -->
<g id="node3" class="node">
<title>Node3</title>
<g id="a_node3"><a xlink:title=" ">
<polygon fill="none" stroke="#bfbfbf" points="16.5,-348 16.5,-405 65.5,-405 65.5,-348 16.5,-348"/>
<text text-anchor="middle" x="41" y="-393" font-family="Helvetica,sans-Serif" font-size="10.00">AActor</text>
<polyline fill="none" stroke="#bfbfbf" points="16.5,-386 65.5,-386 "/>
<text text-anchor="middle" x="41" y="-374" font-family="Helvetica,sans-Serif" font-size="10.00"> </text>
<polyline fill="none" stroke="#bfbfbf" points="16.5,-367 65.5,-367 "/>
<text text-anchor="middle" x="41" y="-355" font-family="Helvetica,sans-Serif" font-size="10.00"> </text>
</a>
</g>
</g>
<!-- Node3&#45;&gt;Node2 -->
<g id="edge2" class="edge">
<title>Node3&#45;&gt;Node2</title>
<path fill="none" stroke="midnightblue" d="M51.45,-337.98C55.09,-324.9 59.32,-309.7 63.53,-294.6"/>
<polygon fill="none" stroke="midnightblue" points="47.98,-337.41 48.66,-347.98 54.72,-339.28 47.98,-337.41"/>
</g>
<!-- Node4 -->
<g id="node4" class="node">
<title>Node4</title>
<g id="a_node4"><a xlink:href="structFItemData.html" target="_top" xlink:title=" ">
<polygon fill="none" stroke="black" points="84,-342.5 84,-410.5 174,-410.5 174,-342.5 84,-342.5"/>
<text text-anchor="middle" x="129" y="-398.5" font-family="Helvetica,sans-Serif" font-size="10.00">FItemData</text>
<polyline fill="none" stroke="black" points="84,-391.5 174,-391.5 "/>
<text text-anchor="start" x="92" y="-379.5" font-family="Helvetica,sans-Serif" font-size="10.00">+ ItemName</text>
<text text-anchor="start" x="92" y="-368.5" font-family="Helvetica,sans-Serif" font-size="10.00">+ ItemNameUI</text>
<polyline fill="none" stroke="black" points="84,-361.5 174,-361.5 "/>
<text text-anchor="middle" x="129" y="-349.5" font-family="Helvetica,sans-Serif" font-size="10.00"> </text>
</a>
</g>
</g>
<!-- Node4&#45;&gt;Node2 -->
<g id="edge3" class="edge">
<title>Node4&#45;&gt;Node2</title>
<path fill="none" stroke="#404040" d="M119.78,-342.38C116.79,-331.64 113.31,-319.17 109.74,-306.35"/>
<polygon fill="none" stroke="#404040" points="109.67,-306.08 104.2,-301.37 106.45,-294.52 111.91,-299.22 109.67,-306.08"/>
<text text-anchor="middle" x="143" y="-316" font-family="Helvetica,sans-Serif" font-size="10.00"> #ItemData</text>
</g>
<!-- Node5 -->
<g id="node5" class="node">
<title>Node5</title>
<g id="a_node5"><a xlink:href="structFGrenadeItemData.html" target="_top" xlink:title=" ">
<polygon fill="none" stroke="black" points="188.5,-188 188.5,-245 311.5,-245 311.5,-188 188.5,-188"/>
<text text-anchor="middle" x="250" y="-233" font-family="Helvetica,sans-Serif" font-size="10.00">FGrenadeItemData</text>
<polyline fill="none" stroke="black" points="188.5,-226 311.5,-226 "/>
<text text-anchor="start" x="196.5" y="-214" font-family="Helvetica,sans-Serif" font-size="10.00">+ DetonationDamage</text>
<polyline fill="none" stroke="black" points="188.5,-207 311.5,-207 "/>
<text text-anchor="middle" x="250" y="-195" font-family="Helvetica,sans-Serif" font-size="10.00"> </text>
</a>
</g>
</g>
<!-- Node5&#45;&gt;Node1 -->
<g id="edge4" class="edge">
<title>Node5&#45;&gt;Node1</title>
<path fill="none" stroke="#404040" d="M236.48,-187.97C224.99,-164.58 208.15,-130.3 193.93,-101.33"/>
<polygon fill="none" stroke="#404040" points="193.91,-101.3 187.68,-97.68 188.62,-90.53 194.86,-94.15 193.91,-101.3"/>
<text text-anchor="middle" x="251.5" y="-112" font-family="Helvetica,sans-Serif" font-size="10.00"> #GrenadeItemData</text>
</g>
</g>
</svg>
