<?xml version="1.0" encoding="UTF-8" standalone="no"?>
<!DOCTYPE svg PUBLIC "-//W3C//DTD SVG 1.1//EN"
 "http://www.w3.org/Graphics/SVG/1.1/DTD/svg11.dtd">
<!-- Generated by graphviz version 2.43.0 (0)
 -->
<!-- Title: AItem Pages: 1 -->
<svg width="318pt" height="397pt"
 viewBox="0.00 0.00 318.00 397.00" xmlns="http://www.w3.org/2000/svg" xmlns:xlink="http://www.w3.org/1999/xlink">
<g id="graph0" class="graph" transform="scale(1 1) rotate(0) translate(4 393)">
<title>AItem</title>
<!-- Node1 -->
<g id="node1" class="node">
<title>Node1</title>
<g id="a_node1"><a xlink:title="Base class for all items in the game.">
<polygon fill="#bfbfbf" stroke="black" points="70.5,-127.5 70.5,-294.5 240.5,-294.5 240.5,-127.5 70.5,-127.5"/>
<text text-anchor="middle" x="155.5" y="-282.5" font-family="Helvetica,sans-Serif" font-size="10.00">AItem</text>
<polyline fill="none" stroke="black" points="70.5,-275.5 240.5,-275.5 "/>
<text text-anchor="start" x="78.5" y="-263.5" font-family="Helvetica,sans-Serif" font-size="10.00"># Mesh</text>
<text text-anchor="start" x="78.5" y="-252.5" font-family="Helvetica,sans-Serif" font-size="10.00"># ItemRegistryType</text>
<text text-anchor="start" x="78.5" y="-241.5" font-family="Helvetica,sans-Serif" font-size="10.00"># TableRowName</text>
<text text-anchor="start" x="78.5" y="-230.5" font-family="Helvetica,sans-Serif" font-size="10.00"># ItemData</text>
<polyline fill="none" stroke="black" points="70.5,-223.5 240.5,-223.5 "/>
<text text-anchor="start" x="78.5" y="-211.5" font-family="Helvetica,sans-Serif" font-size="10.00">+ AItem()</text>
<text text-anchor="start" x="78.5" y="-200.5" font-family="Helvetica,sans-Serif" font-size="10.00">+ GetItemData_Copy()</text>
<text text-anchor="start" x="78.5" y="-189.5" font-family="Helvetica,sans-Serif" font-size="10.00">+ GetItemData()</text>
<text text-anchor="start" x="78.5" y="-178.5" font-family="Helvetica,sans-Serif" font-size="10.00">+ GetMesh()</text>
<text text-anchor="start" x="78.5" y="-167.5" font-family="Helvetica,sans-Serif" font-size="10.00"># BeginPlay()</text>
<text text-anchor="start" x="78.5" y="-156.5" font-family="Helvetica,sans-Serif" font-size="10.00"># Tick()</text>
<text text-anchor="start" x="78.5" y="-145.5" font-family="Helvetica,sans-Serif" font-size="10.00"># OnItemRegistryFound()</text>
<text text-anchor="start" x="78.5" y="-134.5" font-family="Helvetica,sans-Serif" font-size="10.00">&#45; ApplyItemDataFromRegistry()</text>
</a>
</g>
</g>
<!-- Node3 -->
<g id="node3" class="node">
<title>Node3</title>
<g id="a_node3"><a xlink:href="classAGrenade.html" target="_top" xlink:title="Base class for all grenade items.">
<polygon fill="none" stroke="black" points="0,-0.5 0,-90.5 147,-90.5 147,-0.5 0,-0.5"/>
<text text-anchor="middle" x="73.5" y="-78.5" font-family="Helvetica,sans-Serif" font-size="10.00">AGrenade</text>
<polyline fill="none" stroke="black" points="0,-71.5 147,-71.5 "/>
<text text-anchor="start" x="8" y="-59.5" font-family="Helvetica,sans-Serif" font-size="10.00"># GrenadeItemData</text>
<polyline fill="none" stroke="black" points="0,-52.5 147,-52.5 "/>
<text text-anchor="start" x="8" y="-40.5" font-family="Helvetica,sans-Serif" font-size="10.00">+ AGrenade()</text>
<text text-anchor="start" x="8" y="-29.5" font-family="Helvetica,sans-Serif" font-size="10.00">+ GetGrenadeData_Copy()</text>
<text text-anchor="start" x="8" y="-18.5" font-family="Helvetica,sans-Serif" font-size="10.00">+ GetGrenadeData()</text>
<text text-anchor="start" x="8" y="-7.5" font-family="Helvetica,sans-Serif" font-size="10.00"># OnItemRegistryFound()</text>
</a>
</g>
</g>
<!-- Node1&#45;&gt;Node3 -->
<g id="edge2" class="edge">
<title>Node1&#45;&gt;Node3</title>
<path fill="none" stroke="midnightblue" d="M109.41,-118.11C104.63,-108.57 99.94,-99.22 95.61,-90.58"/>
<polygon fill="none" stroke="midnightblue" points="106.41,-119.92 114.02,-127.29 112.67,-116.78 106.41,-119.92"/>
</g>
<!-- Node4 -->
<g id="node4" class="node">
<title>Node4</title>
<g id="a_node4"><a xlink:href="classAWeapon.html" target="_top" xlink:title="Base class for all weapon items.">
<polygon fill="none" stroke="black" points="165,-0.5 165,-90.5 310,-90.5 310,-0.5 165,-0.5"/>
<text text-anchor="middle" x="237.5" y="-78.5" font-family="Helvetica,sans-Serif" font-size="10.00">AWeapon</text>
<polyline fill="none" stroke="black" points="165,-71.5 310,-71.5 "/>
<text text-anchor="start" x="173" y="-59.5" font-family="Helvetica,sans-Serif" font-size="10.00"># WeaponItemData</text>
<polyline fill="none" stroke="black" points="165,-52.5 310,-52.5 "/>
<text text-anchor="start" x="173" y="-40.5" font-family="Helvetica,sans-Serif" font-size="10.00">+ AWeapon()</text>
<text text-anchor="start" x="173" y="-29.5" font-family="Helvetica,sans-Serif" font-size="10.00">+ GetWeaponData_Copy()</text>
<text text-anchor="start" x="173" y="-18.5" font-family="Helvetica,sans-Serif" font-size="10.00">+ GetWeaponData_Copy()</text>
<text text-anchor="start" x="173" y="-7.5" font-family="Helvetica,sans-Serif" font-size="10.00"># OnItemRegistryFound()</text>
</a>
</g>
</g>
<!-- Node1&#45;&gt;Node4 -->
<g id="edge3" class="edge">
<title>Node1&#45;&gt;Node4</title>
<path fill="none" stroke="midnightblue" d="M201.59,-118.11C206.37,-108.57 211.06,-99.22 215.39,-90.58"/>
<polygon fill="none" stroke="midnightblue" points="198.33,-116.78 196.98,-127.29 204.59,-119.92 198.33,-116.78"/>
</g>
<!-- Node2 -->
<g id="node2" class="node">
<title>Node2</title>
<g id="a_node2"><a xlink:title=" ">
<polygon fill="none" stroke="#bfbfbf" points="131,-331.5 131,-388.5 180,-388.5 180,-331.5 131,-331.5"/>
<text text-anchor="middle" x="155.5" y="-376.5" font-family="Helvetica,sans-Serif" font-size="10.00">AActor</text>
<polyline fill="none" stroke="#bfbfbf" points="131,-369.5 180,-369.5 "/>
<text text-anchor="middle" x="155.5" y="-357.5" font-family="Helvetica,sans-Serif" font-size="10.00"> </text>
<polyline fill="none" stroke="#bfbfbf" points="131,-350.5 180,-350.5 "/>
<text text-anchor="middle" x="155.5" y="-338.5" font-family="Helvetica,sans-Serif" font-size="10.00"> </text>
</a>
</g>
</g>
<!-- Node2&#45;&gt;Node1 -->
<g id="edge1" class="edge">
<title>Node2&#45;&gt;Node1</title>
<path fill="none" stroke="midnightblue" d="M155.5,-321.35C155.5,-313.08 155.5,-304.01 155.5,-294.74"/>
<polygon fill="none" stroke="midnightblue" points="152,-321.35 155.5,-331.35 159,-321.35 152,-321.35"/>
</g>
</g>
</svg>
