<?xml version="1.0" encoding="UTF-8" standalone="no"?>
<!DOCTYPE svg PUBLIC "-//W3C//DTD SVG 1.1//EN"
 "http://www.w3.org/Graphics/SVG/1.1/DTD/svg11.dtd">
<!-- Generated by graphviz version 2.43.0 (0)
 -->
<!-- Title: AKidRedHUD Pages: 1 -->
<svg width="233pt" height="343pt"
 viewBox="0.00 0.00 232.50 343.00" xmlns="http://www.w3.org/2000/svg" xmlns:xlink="http://www.w3.org/1999/xlink">
<g id="graph0" class="graph" transform="scale(1 1) rotate(0) translate(4 339)">
<title>AKidRedHUD</title>
<!-- Node1 -->
<g id="node1" class="node">
<title>Node1</title>
<g id="a_node1"><a xlink:title=" ">
<polygon fill="#bfbfbf" stroke="black" points="0,-0.5 0,-134.5 165,-134.5 165,-0.5 0,-0.5"/>
<text text-anchor="middle" x="82.5" y="-122.5" font-family="Helvetica,sans-Serif" font-size="10.00">AKidRedHUD</text>
<polyline fill="none" stroke="black" points="0,-115.5 165,-115.5 "/>
<text text-anchor="start" x="8" y="-103.5" font-family="Helvetica,sans-Serif" font-size="10.00"># bEnableHUD</text>
<text text-anchor="start" x="8" y="-92.5" font-family="Helvetica,sans-Serif" font-size="10.00"># HUD_Class</text>
<text text-anchor="start" x="8" y="-81.5" font-family="Helvetica,sans-Serif" font-size="10.00">&#45; GameStatsOverlayWidget</text>
<text text-anchor="start" x="8" y="-70.5" font-family="Helvetica,sans-Serif" font-size="10.00">&#45; GameStatsOverlayContainer</text>
<polyline fill="none" stroke="black" points="0,-63.5 165,-63.5 "/>
<text text-anchor="start" x="8" y="-51.5" font-family="Helvetica,sans-Serif" font-size="10.00">+ AKidRedHUD()</text>
<text text-anchor="start" x="8" y="-40.5" font-family="Helvetica,sans-Serif" font-size="10.00">+ InitializeHUD()</text>
<text text-anchor="start" x="8" y="-29.5" font-family="Helvetica,sans-Serif" font-size="10.00"># BeginPlay()</text>
<text text-anchor="start" x="8" y="-18.5" font-family="Helvetica,sans-Serif" font-size="10.00"># Tick()</text>
<text text-anchor="start" x="8" y="-7.5" font-family="Helvetica,sans-Serif" font-size="10.00">&#45; InitializeGameStatsOverlay()</text>
</a>
</g>
</g>
<!-- Node2 -->
<g id="node2" class="node">
<title>Node2</title>
<g id="a_node2"><a xlink:title=" ">
<polygon fill="none" stroke="#bfbfbf" points="26.5,-182.5 26.5,-239.5 72.5,-239.5 72.5,-182.5 26.5,-182.5"/>
<text text-anchor="middle" x="49.5" y="-227.5" font-family="Helvetica,sans-Serif" font-size="10.00">AHUD</text>
<polyline fill="none" stroke="#bfbfbf" points="26.5,-220.5 72.5,-220.5 "/>
<text text-anchor="middle" x="49.5" y="-208.5" font-family="Helvetica,sans-Serif" font-size="10.00"> </text>
<polyline fill="none" stroke="#bfbfbf" points="26.5,-201.5 72.5,-201.5 "/>
<text text-anchor="middle" x="49.5" y="-189.5" font-family="Helvetica,sans-Serif" font-size="10.00"> </text>
</a>
</g>
</g>
<!-- Node2&#45;&gt;Node1 -->
<g id="edge1" class="edge">
<title>Node2&#45;&gt;Node1</title>
<path fill="none" stroke="midnightblue" d="M58.22,-172.6C60.94,-160.96 64.02,-147.75 67.05,-134.75"/>
<polygon fill="none" stroke="midnightblue" points="54.8,-171.85 55.94,-182.38 61.62,-173.44 54.8,-171.85"/>
</g>
<!-- Node3 -->
<g id="node3" class="node">
<title>Node3</title>
<g id="a_node3"><a xlink:href="classUKidRedHUDWidget.html" target="_top" xlink:title=" ">
<polygon fill="none" stroke="black" points="90.5,-182.5 90.5,-239.5 206.5,-239.5 206.5,-182.5 90.5,-182.5"/>
<text text-anchor="middle" x="148.5" y="-227.5" font-family="Helvetica,sans-Serif" font-size="10.00">UKidRedHUDWidget</text>
<polyline fill="none" stroke="black" points="90.5,-220.5 206.5,-220.5 "/>
<text text-anchor="middle" x="148.5" y="-208.5" font-family="Helvetica,sans-Serif" font-size="10.00"> </text>
<polyline fill="none" stroke="black" points="90.5,-201.5 206.5,-201.5 "/>
<text text-anchor="middle" x="148.5" y="-189.5" font-family="Helvetica,sans-Serif" font-size="10.00"> </text>
</a>
</g>
</g>
<!-- Node3&#45;&gt;Node1 -->
<g id="edge2" class="edge">
<title>Node3&#45;&gt;Node1</title>
<path fill="none" stroke="#404040" d="M135.62,-182.38C130.64,-171.7 124.66,-158.9 118.55,-145.79"/>
<polygon fill="none" stroke="#404040" points="118.47,-145.63 112.31,-141.88 113.4,-134.75 119.56,-138.5 118.47,-145.63"/>
<text text-anchor="middle" x="174.5" y="-156" font-family="Helvetica,sans-Serif" font-size="10.00"> #PlayerHUDWidget</text>
</g>
<!-- Node4 -->
<g id="node4" class="node">
<title>Node4</title>
<g id="a_node4"><a xlink:title=" ">
<polygon fill="none" stroke="#bfbfbf" points="108,-277.5 108,-334.5 189,-334.5 189,-277.5 108,-277.5"/>
<text text-anchor="middle" x="148.5" y="-322.5" font-family="Helvetica,sans-Serif" font-size="10.00">UUserWidget</text>
<polyline fill="none" stroke="#bfbfbf" points="108,-315.5 189,-315.5 "/>
<text text-anchor="middle" x="148.5" y="-303.5" font-family="Helvetica,sans-Serif" font-size="10.00"> </text>
<polyline fill="none" stroke="#bfbfbf" points="108,-296.5 189,-296.5 "/>
<text text-anchor="middle" x="148.5" y="-284.5" font-family="Helvetica,sans-Serif" font-size="10.00"> </text>
</a>
</g>
</g>
<!-- Node4&#45;&gt;Node3 -->
<g id="edge3" class="edge">
<title>Node4&#45;&gt;Node3</title>
<path fill="none" stroke="midnightblue" d="M148.5,-267.24C148.5,-258.03 148.5,-248.35 148.5,-239.71"/>
<polygon fill="none" stroke="midnightblue" points="145,-267.35 148.5,-277.35 152,-267.35 145,-267.35"/>
</g>
</g>
</svg>
