<?xml version="1.0" encoding="UTF-8" standalone="no"?>
<!DOCTYPE svg PUBLIC "-//W3C//DTD SVG 1.1//EN"
 "http://www.w3.org/Graphics/SVG/1.1/DTD/svg11.dtd">
<!-- Generated by graphviz version 2.43.0 (0)
 -->
<!-- Title: AKidRedLevelScriptBase Pages: 1 -->
<svg width="163pt" height="160pt"
 viewBox="0.00 0.00 163.00 160.00" xmlns="http://www.w3.org/2000/svg" xmlns:xlink="http://www.w3.org/1999/xlink">
<g id="graph0" class="graph" transform="scale(1 1) rotate(0) translate(4 156)">
<title>AKidRedLevelScriptBase</title>
<!-- Node1 -->
<g id="node1" class="node">
<title>Node1</title>
<g id="a_node1"><a xlink:title=" ">
<polygon fill="#bfbfbf" stroke="black" points="0,-0.5 0,-57.5 155,-57.5 155,-0.5 0,-0.5"/>
<text text-anchor="middle" x="77.5" y="-45.5" font-family="Helvetica,sans-Serif" font-size="10.00">AKidRedLevelScriptBase</text>
<polyline fill="none" stroke="black" points="0,-38.5 155,-38.5 "/>
<text text-anchor="middle" x="77.5" y="-26.5" font-family="Helvetica,sans-Serif" font-size="10.00"> </text>
<polyline fill="none" stroke="black" points="0,-19.5 155,-19.5 "/>
<text text-anchor="start" x="8" y="-7.5" font-family="Helvetica,sans-Serif" font-size="10.00">+ AKidRedLevelScriptBase()</text>
</a>
</g>
</g>
<!-- Node2 -->
<g id="node2" class="node">
<title>Node2</title>
<g id="a_node2"><a xlink:title=" ">
<polygon fill="none" stroke="#bfbfbf" points="26,-94.5 26,-151.5 129,-151.5 129,-94.5 26,-94.5"/>
<text text-anchor="middle" x="77.5" y="-139.5" font-family="Helvetica,sans-Serif" font-size="10.00">ALevelScriptActor</text>
<polyline fill="none" stroke="#bfbfbf" points="26,-132.5 129,-132.5 "/>
<text text-anchor="middle" x="77.5" y="-120.5" font-family="Helvetica,sans-Serif" font-size="10.00"> </text>
<polyline fill="none" stroke="#bfbfbf" points="26,-113.5 129,-113.5 "/>
<text text-anchor="middle" x="77.5" y="-101.5" font-family="Helvetica,sans-Serif" font-size="10.00"> </text>
</a>
</g>
</g>
<!-- Node2&#45;&gt;Node1 -->
<g id="edge1" class="edge">
<title>Node2&#45;&gt;Node1</title>
<path fill="none" stroke="midnightblue" d="M77.5,-84.21C77.5,-75.29 77.5,-65.95 77.5,-57.58"/>
<polygon fill="none" stroke="midnightblue" points="74,-84.4 77.5,-94.4 81,-84.4 74,-84.4"/>
</g>
</g>
</svg>
