<?xml version="1.0" encoding="UTF-8" standalone="no"?>
<!DOCTYPE svg PUBLIC "-//W3C//DTD SVG 1.1//EN"
 "http://www.w3.org/Graphics/SVG/1.1/DTD/svg11.dtd">
<!-- Generated by graphviz version 2.43.0 (0)
 -->
<!-- Title: AGrenade Pages: 1 -->
<svg width="178pt" height="375pt"
 viewBox="0.00 0.00 178.00 375.00" xmlns="http://www.w3.org/2000/svg" xmlns:xlink="http://www.w3.org/1999/xlink">
<g id="graph0" class="graph" transform="scale(1 1) rotate(0) translate(4 371)">
<title>AGrenade</title>
<!-- Node1 -->
<g id="node1" class="node">
<title>Node1</title>
<g id="a_node1"><a xlink:title="Base class for all grenade items.">
<polygon fill="#bfbfbf" stroke="black" points="11.5,-0.5 11.5,-79.5 158.5,-79.5 158.5,-0.5 11.5,-0.5"/>
<text text-anchor="middle" x="85" y="-67.5" font-family="Helvetica,sans-Serif" font-size="10.00">AGrenade</text>
<polyline fill="none" stroke="black" points="11.5,-60.5 158.5,-60.5 "/>
<text text-anchor="start" x="19.5" y="-48.5" font-family="Helvetica,sans-Serif" font-size="10.00"># GrenadeItemData</text>
<polyline fill="none" stroke="black" points="11.5,-41.5 158.5,-41.5 "/>
<text text-anchor="start" x="19.5" y="-29.5" font-family="Helvetica,sans-Serif" font-size="10.00">+ AGrenade()</text>
<text text-anchor="start" x="19.5" y="-18.5" font-family="Helvetica,sans-Serif" font-size="10.00">+ GetGrenadeData_Copy()</text>
<text text-anchor="start" x="19.5" y="-7.5" font-family="Helvetica,sans-Serif" font-size="10.00"># OnItemRegistryFound()</text>
</a>
</g>
</g>
<!-- Node2 -->
<g id="node2" class="node">
<title>Node2</title>
<g id="a_node2"><a xlink:href="classAItem.html" target="_top" xlink:title="Base class for all items in the game.">
<polygon fill="none" stroke="black" points="0,-116.5 0,-272.5 170,-272.5 170,-116.5 0,-116.5"/>
<text text-anchor="middle" x="85" y="-260.5" font-family="Helvetica,sans-Serif" font-size="10.00">AItem</text>
<polyline fill="none" stroke="black" points="0,-253.5 170,-253.5 "/>
<text text-anchor="start" x="8" y="-241.5" font-family="Helvetica,sans-Serif" font-size="10.00"># Mesh</text>
<text text-anchor="start" x="8" y="-230.5" font-family="Helvetica,sans-Serif" font-size="10.00"># ItemRegistryType</text>
<text text-anchor="start" x="8" y="-219.5" font-family="Helvetica,sans-Serif" font-size="10.00"># TableRowName</text>
<text text-anchor="start" x="8" y="-208.5" font-family="Helvetica,sans-Serif" font-size="10.00"># ItemData</text>
<polyline fill="none" stroke="black" points="0,-201.5 170,-201.5 "/>
<text text-anchor="start" x="8" y="-189.5" font-family="Helvetica,sans-Serif" font-size="10.00">+ AItem()</text>
<text text-anchor="start" x="8" y="-178.5" font-family="Helvetica,sans-Serif" font-size="10.00">+ GetItemData_Copy()</text>
<text text-anchor="start" x="8" y="-167.5" font-family="Helvetica,sans-Serif" font-size="10.00">+ GetMesh()</text>
<text text-anchor="start" x="8" y="-156.5" font-family="Helvetica,sans-Serif" font-size="10.00"># BeginPlay()</text>
<text text-anchor="start" x="8" y="-145.5" font-family="Helvetica,sans-Serif" font-size="10.00"># Tick()</text>
<text text-anchor="start" x="8" y="-134.5" font-family="Helvetica,sans-Serif" font-size="10.00"># OnItemRegistryFound()</text>
<text text-anchor="start" x="8" y="-123.5" font-family="Helvetica,sans-Serif" font-size="10.00">&#45; ApplyItemDataFromRegistry()</text>
</a>
</g>
</g>
<!-- Node2&#45;&gt;Node1 -->
<g id="edge1" class="edge">
<title>Node2&#45;&gt;Node1</title>
<path fill="none" stroke="midnightblue" d="M85,-106.26C85,-97.02 85,-87.99 85,-79.75"/>
<polygon fill="none" stroke="midnightblue" points="81.5,-106.36 85,-116.36 88.5,-106.36 81.5,-106.36"/>
</g>
<!-- Node3 -->
<g id="node3" class="node">
<title>Node3</title>
<g id="a_node3"><a xlink:title=" ">
<polygon fill="none" stroke="#bfbfbf" points="60.5,-309.5 60.5,-366.5 109.5,-366.5 109.5,-309.5 60.5,-309.5"/>
<text text-anchor="middle" x="85" y="-354.5" font-family="Helvetica,sans-Serif" font-size="10.00">AActor</text>
<polyline fill="none" stroke="#bfbfbf" points="60.5,-347.5 109.5,-347.5 "/>
<text text-anchor="middle" x="85" y="-335.5" font-family="Helvetica,sans-Serif" font-size="10.00"> </text>
<polyline fill="none" stroke="#bfbfbf" points="60.5,-328.5 109.5,-328.5 "/>
<text text-anchor="middle" x="85" y="-316.5" font-family="Helvetica,sans-Serif" font-size="10.00"> </text>
</a>
</g>
</g>
<!-- Node3&#45;&gt;Node2 -->
<g id="edge2" class="edge">
<title>Node3&#45;&gt;Node2</title>
<path fill="none" stroke="midnightblue" d="M85,-299.34C85,-291.04 85,-281.96 85,-272.74"/>
<polygon fill="none" stroke="midnightblue" points="81.5,-299.38 85,-309.38 88.5,-299.38 81.5,-299.38"/>
</g>
</g>
</svg>
