<?xml version="1.0" encoding="UTF-8" standalone="no"?>
<!DOCTYPE svg PUBLIC "-//W3C//DTD SVG 1.1//EN"
 "http://www.w3.org/Graphics/SVG/1.1/DTD/svg11.dtd">
<!-- Generated by graphviz version 2.43.0 (0)
 -->
<!-- Title: UKidRedAnimInstance Pages: 1 -->
<svg width="507pt" height="486pt"
 viewBox="0.00 0.00 507.00 486.00" xmlns="http://www.w3.org/2000/svg" xmlns:xlink="http://www.w3.org/1999/xlink">
<g id="graph0" class="graph" transform="scale(1 1) rotate(0) translate(4 482)">
<title>UKidRedAnimInstance</title>
<!-- Node1 -->
<g id="node1" class="node">
<title>Node1</title>
<g id="a_node1"><a xlink:title="Base class anim instance for all Kid Red characters.">
<polygon fill="#bfbfbf" stroke="black" points="114.5,-0.5 114.5,-79.5 274.5,-79.5 274.5,-0.5 114.5,-0.5"/>
<text text-anchor="middle" x="194.5" y="-67.5" font-family="Helvetica,sans-Serif" font-size="10.00">UKidRedAnimInstance</text>
<polyline fill="none" stroke="black" points="114.5,-60.5 274.5,-60.5 "/>
<text text-anchor="start" x="122.5" y="-48.5" font-family="Helvetica,sans-Serif" font-size="10.00"># DeltaTime</text>
<polyline fill="none" stroke="black" points="114.5,-41.5 274.5,-41.5 "/>
<text text-anchor="start" x="122.5" y="-29.5" font-family="Helvetica,sans-Serif" font-size="10.00"># NativeInitializeAnimation()</text>
<text text-anchor="start" x="122.5" y="-18.5" font-family="Helvetica,sans-Serif" font-size="10.00"># NativeUpdateAnimation()</text>
<text text-anchor="start" x="122.5" y="-7.5" font-family="Helvetica,sans-Serif" font-size="10.00">&#45; CreateAnimInstanceProxy()</text>
</a>
</g>
</g>
<!-- Node2 -->
<g id="node2" class="node">
<title>Node2</title>
<g id="a_node2"><a xlink:title=" ">
<polygon fill="none" stroke="#bfbfbf" points="0,-226.5 0,-283.5 91,-283.5 91,-226.5 0,-226.5"/>
<text text-anchor="middle" x="45.5" y="-271.5" font-family="Helvetica,sans-Serif" font-size="10.00">UAnimInstance</text>
<polyline fill="none" stroke="#bfbfbf" points="0,-264.5 91,-264.5 "/>
<text text-anchor="middle" x="45.5" y="-252.5" font-family="Helvetica,sans-Serif" font-size="10.00"> </text>
<polyline fill="none" stroke="#bfbfbf" points="0,-245.5 91,-245.5 "/>
<text text-anchor="middle" x="45.5" y="-233.5" font-family="Helvetica,sans-Serif" font-size="10.00"> </text>
</a>
</g>
</g>
<!-- Node2&#45;&gt;Node1 -->
<g id="edge1" class="edge">
<title>Node2&#45;&gt;Node1</title>
<path fill="none" stroke="midnightblue" d="M57.01,-216.58C66.24,-190.08 80.9,-154.5 100.5,-127 112.82,-109.71 129.12,-93.29 144.69,-79.53"/>
<polygon fill="none" stroke="midnightblue" points="53.63,-215.67 53.74,-226.26 60.26,-217.91 53.63,-215.67"/>
</g>
<!-- Node3 -->
<g id="node3" class="node">
<title>Node3</title>
<g id="a_node3"><a xlink:href="structFKidRedAnimInstanceProxy.html" target="_top" xlink:title=" ">
<polygon fill="none" stroke="black" points="109.5,-204.5 109.5,-305.5 279.5,-305.5 279.5,-204.5 109.5,-204.5"/>
<text text-anchor="middle" x="194.5" y="-293.5" font-family="Helvetica,sans-Serif" font-size="10.00">FKidRedAnimInstanceProxy</text>
<polyline fill="none" stroke="black" points="109.5,-286.5 279.5,-286.5 "/>
<text text-anchor="start" x="117.5" y="-274.5" font-family="Helvetica,sans-Serif" font-size="10.00">+ World</text>
<polyline fill="none" stroke="black" points="109.5,-267.5 279.5,-267.5 "/>
<text text-anchor="start" x="117.5" y="-255.5" font-family="Helvetica,sans-Serif" font-size="10.00">+ FKidRedAnimInstanceProxy()</text>
<text text-anchor="start" x="117.5" y="-244.5" font-family="Helvetica,sans-Serif" font-size="10.00">+ FKidRedAnimInstanceProxy()</text>
<text text-anchor="start" x="117.5" y="-233.5" font-family="Helvetica,sans-Serif" font-size="10.00">+ PreUpdate()</text>
<text text-anchor="start" x="117.5" y="-222.5" font-family="Helvetica,sans-Serif" font-size="10.00">+ Update()</text>
<text text-anchor="start" x="117.5" y="-211.5" font-family="Helvetica,sans-Serif" font-size="10.00">+ PostUpdate()</text>
</a>
</g>
</g>
<!-- Node3&#45;&gt;Node1 -->
<g id="edge2" class="edge">
<title>Node3&#45;&gt;Node1</title>
<path fill="none" stroke="#404040" d="M194.5,-204.33C194.5,-170.5 194.5,-125.85 194.5,-91.78"/>
<polygon fill="none" stroke="#404040" points="194.5,-91.75 190.5,-85.75 194.5,-79.75 198.5,-85.75 194.5,-91.75"/>
<text text-anchor="middle" x="212" y="-101" font-family="Helvetica,sans-Serif" font-size="10.00"> &#45;Proxy</text>
</g>
<!-- Node4 -->
<g id="node4" class="node">
<title>Node4</title>
<g id="a_node4"><a xlink:title=" ">
<polygon fill="none" stroke="#bfbfbf" points="136.5,-420.5 136.5,-477.5 252.5,-477.5 252.5,-420.5 136.5,-420.5"/>
<text text-anchor="middle" x="194.5" y="-465.5" font-family="Helvetica,sans-Serif" font-size="10.00">FAnimInstanceProxy</text>
<polyline fill="none" stroke="#bfbfbf" points="136.5,-458.5 252.5,-458.5 "/>
<text text-anchor="middle" x="194.5" y="-446.5" font-family="Helvetica,sans-Serif" font-size="10.00"> </text>
<polyline fill="none" stroke="#bfbfbf" points="136.5,-439.5 252.5,-439.5 "/>
<text text-anchor="middle" x="194.5" y="-427.5" font-family="Helvetica,sans-Serif" font-size="10.00"> </text>
</a>
</g>
</g>
<!-- Node4&#45;&gt;Node3 -->
<g id="edge3" class="edge">
<title>Node4&#45;&gt;Node3</title>
<path fill="none" stroke="midnightblue" d="M194.5,-410.46C194.5,-380.57 194.5,-338.46 194.5,-305.76"/>
<polygon fill="none" stroke="midnightblue" points="191,-410.49 194.5,-420.49 198,-410.49 191,-410.49"/>
</g>
<!-- Node5 -->
<g id="node5" class="node">
<title>Node5</title>
<g id="a_node5"><a xlink:href="classAKidRedCharacter.html" target="_top" xlink:title=" ">
<polygon fill="none" stroke="black" points="298,-127.5 298,-382.5 499,-382.5 499,-127.5 298,-127.5"/>
<text text-anchor="middle" x="398.5" y="-370.5" font-family="Helvetica,sans-Serif" font-size="10.00">AKidRedCharacter</text>
<polyline fill="none" stroke="black" points="298,-363.5 499,-363.5 "/>
<text text-anchor="start" x="306" y="-351.5" font-family="Helvetica,sans-Serif" font-size="10.00">+ BaseTurnRate</text>
<text text-anchor="start" x="306" y="-340.5" font-family="Helvetica,sans-Serif" font-size="10.00">+ BaseLookUpRate</text>
<text text-anchor="start" x="306" y="-329.5" font-family="Helvetica,sans-Serif" font-size="10.00">+ GunOffset</text>
<text text-anchor="start" x="306" y="-318.5" font-family="Helvetica,sans-Serif" font-size="10.00">+ ProjectileClass</text>
<text text-anchor="start" x="306" y="-307.5" font-family="Helvetica,sans-Serif" font-size="10.00">+ FireSound</text>
<text text-anchor="start" x="306" y="-296.5" font-family="Helvetica,sans-Serif" font-size="10.00">+ FireAnimation</text>
<text text-anchor="start" x="306" y="-285.5" font-family="Helvetica,sans-Serif" font-size="10.00">&#45; Mesh1P</text>
<text text-anchor="start" x="306" y="-274.5" font-family="Helvetica,sans-Serif" font-size="10.00">&#45; FP_Gun</text>
<text text-anchor="start" x="306" y="-263.5" font-family="Helvetica,sans-Serif" font-size="10.00">&#45; FP_MuzzleLocation</text>
<text text-anchor="start" x="306" y="-252.5" font-family="Helvetica,sans-Serif" font-size="10.00">&#45; FirstPersonCameraComponent</text>
<polyline fill="none" stroke="black" points="298,-245.5 499,-245.5 "/>
<text text-anchor="start" x="306" y="-233.5" font-family="Helvetica,sans-Serif" font-size="10.00">+ AKidRedCharacter()</text>
<text text-anchor="start" x="306" y="-222.5" font-family="Helvetica,sans-Serif" font-size="10.00">+ GetMesh1P()</text>
<text text-anchor="start" x="306" y="-211.5" font-family="Helvetica,sans-Serif" font-size="10.00">+ GetFirstPersonCameraComponent()</text>
<text text-anchor="start" x="306" y="-200.5" font-family="Helvetica,sans-Serif" font-size="10.00"># BeginPlay()</text>
<text text-anchor="start" x="306" y="-189.5" font-family="Helvetica,sans-Serif" font-size="10.00"># OnFire()</text>
<text text-anchor="start" x="306" y="-178.5" font-family="Helvetica,sans-Serif" font-size="10.00"># MoveForward()</text>
<text text-anchor="start" x="306" y="-167.5" font-family="Helvetica,sans-Serif" font-size="10.00"># MoveRight()</text>
<text text-anchor="start" x="306" y="-156.5" font-family="Helvetica,sans-Serif" font-size="10.00"># TurnAtRate()</text>
<text text-anchor="start" x="306" y="-145.5" font-family="Helvetica,sans-Serif" font-size="10.00"># LookUpAtRate()</text>
<text text-anchor="start" x="306" y="-134.5" font-family="Helvetica,sans-Serif" font-size="10.00"># SetupPlayerInputComponent()</text>
</a>
</g>
</g>
<!-- Node5&#45;&gt;Node1 -->
<g id="edge4" class="edge">
<title>Node5&#45;&gt;Node1</title>
<path fill="none" stroke="#404040" d="M297.7,-136.59C294.62,-133.34 291.55,-130.14 288.5,-127 275.84,-113.99 261.64,-100.49 248.18,-88.14"/>
<polygon fill="none" stroke="#404040" points="247.89,-87.87 240.76,-86.79 239.02,-79.8 246.15,-80.88 247.89,-87.87"/>
<text text-anchor="middle" x="314" y="-101" font-family="Helvetica,sans-Serif" font-size="10.00"> &#45;KidRedCharacter</text>
</g>
<!-- Node6 -->
<g id="node6" class="node">
<title>Node6</title>
<g id="a_node6"><a xlink:title=" ">
<polygon fill="none" stroke="#bfbfbf" points="363,-420.5 363,-477.5 434,-477.5 434,-420.5 363,-420.5"/>
<text text-anchor="middle" x="398.5" y="-465.5" font-family="Helvetica,sans-Serif" font-size="10.00">ACharacter</text>
<polyline fill="none" stroke="#bfbfbf" points="363,-458.5 434,-458.5 "/>
<text text-anchor="middle" x="398.5" y="-446.5" font-family="Helvetica,sans-Serif" font-size="10.00"> </text>
<polyline fill="none" stroke="#bfbfbf" points="363,-439.5 434,-439.5 "/>
<text text-anchor="middle" x="398.5" y="-427.5" font-family="Helvetica,sans-Serif" font-size="10.00"> </text>
</a>
</g>
</g>
<!-- Node6&#45;&gt;Node5 -->
<g id="edge5" class="edge">
<title>Node6&#45;&gt;Node5</title>
<path fill="none" stroke="midnightblue" d="M398.5,-410.39C398.5,-401.98 398.5,-392.61 398.5,-382.75"/>
<polygon fill="none" stroke="midnightblue" points="395,-410.49 398.5,-420.49 402,-410.49 395,-410.49"/>
</g>
</g>
</svg>
