<?xml version="1.0" encoding="UTF-8" standalone="no"?>
<!DOCTYPE svg PUBLIC "-//W3C//DTD SVG 1.1//EN"
 "http://www.w3.org/Graphics/SVG/1.1/DTD/svg11.dtd">
<!-- Generated by graphviz version 2.43.0 (0)
 -->
<!-- Title: AWeapon Pages: 1 -->
<svg width="304pt" height="419pt"
 viewBox="0.00 0.00 303.50 419.00" xmlns="http://www.w3.org/2000/svg" xmlns:xlink="http://www.w3.org/1999/xlink">
<g id="graph0" class="graph" transform="scale(1 1) rotate(0) translate(4 415)">
<title>AWeapon</title>
<!-- Node1 -->
<g id="node1" class="node">
<title>Node1</title>
<g id="a_node1"><a xlink:title="Base class for all weapon items.">
<polygon fill="#bfbfbf" stroke="black" points="90.5,-0.5 90.5,-90.5 235.5,-90.5 235.5,-0.5 90.5,-0.5"/>
<text text-anchor="middle" x="163" y="-78.5" font-family="Helvetica,sans-Serif" font-size="10.00">AWeapon</text>
<polyline fill="none" stroke="black" points="90.5,-71.5 235.5,-71.5 "/>
<text text-anchor="middle" x="163" y="-59.5" font-family="Helvetica,sans-Serif" font-size="10.00"> </text>
<polyline fill="none" stroke="black" points="90.5,-52.5 235.5,-52.5 "/>
<text text-anchor="start" x="98.5" y="-40.5" font-family="Helvetica,sans-Serif" font-size="10.00">+ AWeapon()</text>
<text text-anchor="start" x="98.5" y="-29.5" font-family="Helvetica,sans-Serif" font-size="10.00">+ GetWeaponData_Copy()</text>
<text text-anchor="start" x="98.5" y="-18.5" font-family="Helvetica,sans-Serif" font-size="10.00">+ GetWeaponData_Copy()</text>
<text text-anchor="start" x="98.5" y="-7.5" font-family="Helvetica,sans-Serif" font-size="10.00"># OnItemRegistryFound()</text>
</a>
</g>
</g>
<!-- Node2 -->
<g id="node2" class="node">
<title>Node2</title>
<g id="a_node2"><a xlink:href="classAItem.html" target="_top" xlink:title="Base class for all items in the game.">
<polygon fill="none" stroke="black" points="0,-138.5 0,-294.5 170,-294.5 170,-138.5 0,-138.5"/>
<text text-anchor="middle" x="85" y="-282.5" font-family="Helvetica,sans-Serif" font-size="10.00">AItem</text>
<polyline fill="none" stroke="black" points="0,-275.5 170,-275.5 "/>
<text text-anchor="start" x="8" y="-263.5" font-family="Helvetica,sans-Serif" font-size="10.00"># Mesh</text>
<text text-anchor="start" x="8" y="-252.5" font-family="Helvetica,sans-Serif" font-size="10.00"># ItemRegistryType</text>
<text text-anchor="start" x="8" y="-241.5" font-family="Helvetica,sans-Serif" font-size="10.00"># TableRowName</text>
<polyline fill="none" stroke="black" points="0,-234.5 170,-234.5 "/>
<text text-anchor="start" x="8" y="-222.5" font-family="Helvetica,sans-Serif" font-size="10.00">+ AItem()</text>
<text text-anchor="start" x="8" y="-211.5" font-family="Helvetica,sans-Serif" font-size="10.00">+ GetItemData_Copy()</text>
<text text-anchor="start" x="8" y="-200.5" font-family="Helvetica,sans-Serif" font-size="10.00">+ GetItemData()</text>
<text text-anchor="start" x="8" y="-189.5" font-family="Helvetica,sans-Serif" font-size="10.00">+ GetMesh()</text>
<text text-anchor="start" x="8" y="-178.5" font-family="Helvetica,sans-Serif" font-size="10.00"># BeginPlay()</text>
<text text-anchor="start" x="8" y="-167.5" font-family="Helvetica,sans-Serif" font-size="10.00"># Tick()</text>
<text text-anchor="start" x="8" y="-156.5" font-family="Helvetica,sans-Serif" font-size="10.00"># OnItemRegistryFound()</text>
<text text-anchor="start" x="8" y="-145.5" font-family="Helvetica,sans-Serif" font-size="10.00">&#45; ApplyItemDataFromRegistry()</text>
</a>
</g>
</g>
<!-- Node2&#45;&gt;Node1 -->
<g id="edge1" class="edge">
<title>Node2&#45;&gt;Node1</title>
<path fill="none" stroke="midnightblue" d="M124.84,-129.19C130.99,-115.85 137.12,-102.57 142.61,-90.68"/>
<polygon fill="none" stroke="midnightblue" points="121.59,-127.87 120.58,-138.42 127.94,-130.81 121.59,-127.87"/>
</g>
<!-- Node3 -->
<g id="node3" class="node">
<title>Node3</title>
<g id="a_node3"><a xlink:title=" ">
<polygon fill="none" stroke="#bfbfbf" points="16.5,-348 16.5,-405 65.5,-405 65.5,-348 16.5,-348"/>
<text text-anchor="middle" x="41" y="-393" font-family="Helvetica,sans-Serif" font-size="10.00">AActor</text>
<polyline fill="none" stroke="#bfbfbf" points="16.5,-386 65.5,-386 "/>
<text text-anchor="middle" x="41" y="-374" font-family="Helvetica,sans-Serif" font-size="10.00"> </text>
<polyline fill="none" stroke="#bfbfbf" points="16.5,-367 65.5,-367 "/>
<text text-anchor="middle" x="41" y="-355" font-family="Helvetica,sans-Serif" font-size="10.00"> </text>
</a>
</g>
</g>
<!-- Node3&#45;&gt;Node2 -->
<g id="edge2" class="edge">
<title>Node3&#45;&gt;Node2</title>
<path fill="none" stroke="midnightblue" d="M51.45,-337.98C55.09,-324.9 59.32,-309.7 63.53,-294.6"/>
<polygon fill="none" stroke="midnightblue" points="47.98,-337.41 48.66,-347.98 54.72,-339.28 47.98,-337.41"/>
</g>
<!-- Node4 -->
<g id="node4" class="node">
<title>Node4</title>
<g id="a_node4"><a xlink:href="structFItemData.html" target="_top" xlink:title=" ">
<polygon fill="none" stroke="black" points="84,-342.5 84,-410.5 174,-410.5 174,-342.5 84,-342.5"/>
<text text-anchor="middle" x="129" y="-398.5" font-family="Helvetica,sans-Serif" font-size="10.00">FItemData</text>
<polyline fill="none" stroke="black" points="84,-391.5 174,-391.5 "/>
<text text-anchor="start" x="92" y="-379.5" font-family="Helvetica,sans-Serif" font-size="10.00">+ ItemName</text>
<text text-anchor="start" x="92" y="-368.5" font-family="Helvetica,sans-Serif" font-size="10.00">+ ItemNameUI</text>
<polyline fill="none" stroke="black" points="84,-361.5 174,-361.5 "/>
<text text-anchor="middle" x="129" y="-349.5" font-family="Helvetica,sans-Serif" font-size="10.00"> </text>
</a>
</g>
</g>
<!-- Node4&#45;&gt;Node2 -->
<g id="edge3" class="edge">
<title>Node4&#45;&gt;Node2</title>
<path fill="none" stroke="#404040" d="M119.78,-342.38C116.79,-331.64 113.31,-319.17 109.74,-306.35"/>
<polygon fill="none" stroke="#404040" points="109.67,-306.08 104.2,-301.37 106.45,-294.52 111.91,-299.22 109.67,-306.08"/>
<text text-anchor="middle" x="143" y="-316" font-family="Helvetica,sans-Serif" font-size="10.00"> #ItemData</text>
</g>
<!-- Node5 -->
<g id="node5" class="node">
<title>Node5</title>
<g id="a_node5"><a xlink:href="structFWeaponItemData.html" target="_top" xlink:title=" ">
<polygon fill="none" stroke="black" points="188.5,-182.5 188.5,-250.5 295.5,-250.5 295.5,-182.5 188.5,-182.5"/>
<text text-anchor="middle" x="242" y="-238.5" font-family="Helvetica,sans-Serif" font-size="10.00">FWeaponItemData</text>
<polyline fill="none" stroke="black" points="188.5,-231.5 295.5,-231.5 "/>
<text text-anchor="start" x="196.5" y="-219.5" font-family="Helvetica,sans-Serif" font-size="10.00">+ Damage</text>
<text text-anchor="start" x="196.5" y="-208.5" font-family="Helvetica,sans-Serif" font-size="10.00">+ FireRate</text>
<polyline fill="none" stroke="black" points="188.5,-201.5 295.5,-201.5 "/>
<text text-anchor="middle" x="242" y="-189.5" font-family="Helvetica,sans-Serif" font-size="10.00"> </text>
</a>
</g>
</g>
<!-- Node5&#45;&gt;Node1 -->
<g id="edge4" class="edge">
<title>Node5&#45;&gt;Node1</title>
<path fill="none" stroke="#404040" d="M226.39,-182.11C215.69,-159.22 201.24,-128.3 188.84,-101.77"/>
<polygon fill="none" stroke="#404040" points="188.75,-101.58 182.58,-97.84 183.67,-90.71 189.83,-94.45 188.75,-101.58"/>
<text text-anchor="middle" x="244.5" y="-112" font-family="Helvetica,sans-Serif" font-size="10.00"> #WeaponItemData</text>
</g>
</g>
</svg>
