<?xml version="1.0" encoding="UTF-8" standalone="no"?>
<!DOCTYPE svg PUBLIC "-//W3C//DTD SVG 1.1//EN"
 "http://www.w3.org/Graphics/SVG/1.1/DTD/svg11.dtd">
<!-- Generated by graphviz version 2.43.0 (0)
 -->
<!-- Title: UKidRedGameplayStatics Pages: 1 -->
<svg width="174pt" height="171pt"
 viewBox="0.00 0.00 174.00 171.00" xmlns="http://www.w3.org/2000/svg" xmlns:xlink="http://www.w3.org/1999/xlink">
<g id="graph0" class="graph" transform="scale(1 1) rotate(0) translate(4 167)">
<title>UKidRedGameplayStatics</title>
<!-- Node1 -->
<g id="node1" class="node">
<title>Node1</title>
<g id="a_node1"><a xlink:title=" ">
<polygon fill="#bfbfbf" stroke="black" points="0,-0.5 0,-68.5 166,-68.5 166,-0.5 0,-0.5"/>
<text text-anchor="middle" x="83" y="-56.5" font-family="Helvetica,sans-Serif" font-size="10.00">UKidRedGameplayStatics</text>
<polyline fill="none" stroke="black" points="0,-49.5 166,-49.5 "/>
<text text-anchor="middle" x="83" y="-37.5" font-family="Helvetica,sans-Serif" font-size="10.00"> </text>
<polyline fill="none" stroke="black" points="0,-30.5 166,-30.5 "/>
<text text-anchor="start" x="8" y="-18.5" font-family="Helvetica,sans-Serif" font-size="10.00">+ GetKidRedPlayerCharacter()</text>
<text text-anchor="start" x="8" y="-7.5" font-family="Helvetica,sans-Serif" font-size="10.00">+ GetKidRedPlayerController()</text>
</a>
</g>
</g>
<!-- Node2 -->
<g id="node2" class="node">
<title>Node2</title>
<g id="a_node2"><a xlink:title=" ">
<polygon fill="none" stroke="#bfbfbf" points="11.5,-105.5 11.5,-162.5 154.5,-162.5 154.5,-105.5 11.5,-105.5"/>
<text text-anchor="middle" x="83" y="-150.5" font-family="Helvetica,sans-Serif" font-size="10.00">UBlueprintFunctionLibrary</text>
<polyline fill="none" stroke="#bfbfbf" points="11.5,-143.5 154.5,-143.5 "/>
<text text-anchor="middle" x="83" y="-131.5" font-family="Helvetica,sans-Serif" font-size="10.00"> </text>
<polyline fill="none" stroke="#bfbfbf" points="11.5,-124.5 154.5,-124.5 "/>
<text text-anchor="middle" x="83" y="-112.5" font-family="Helvetica,sans-Serif" font-size="10.00"> </text>
</a>
</g>
</g>
<!-- Node2&#45;&gt;Node1 -->
<g id="edge1" class="edge">
<title>Node2&#45;&gt;Node1</title>
<path fill="none" stroke="midnightblue" d="M83,-95.06C83,-86.39 83,-77.24 83,-68.79"/>
<polygon fill="none" stroke="midnightblue" points="79.5,-95.32 83,-105.32 86.5,-95.32 79.5,-95.32"/>
</g>
</g>
</svg>
