<?xml version="1.0" encoding="UTF-8" standalone="no"?>
<!DOCTYPE svg PUBLIC "-//W3C//DTD SVG 1.1//EN"
 "http://www.w3.org/Graphics/SVG/1.1/DTD/svg11.dtd">
<!-- Generated by graphviz version 2.43.0 (0)
 -->
<!-- Title: AKidRedCharacter Pages: 1 -->
<svg width="209pt" height="452pt"
 viewBox="0.00 0.00 209.00 452.00" xmlns="http://www.w3.org/2000/svg" xmlns:xlink="http://www.w3.org/1999/xlink">
<g id="graph0" class="graph" transform="scale(1 1) rotate(0) translate(4 448)">
<title>AKidRedCharacter</title>
<!-- Node1 -->
<g id="node1" class="node">
<title>Node1</title>
<g id="a_node1"><a xlink:title=" ">
<polygon fill="#bfbfbf" stroke="black" points="0,-94.5 0,-349.5 201,-349.5 201,-94.5 0,-94.5"/>
<text text-anchor="middle" x="100.5" y="-337.5" font-family="Helvetica,sans-Serif" font-size="10.00">AKidRedCharacter</text>
<polyline fill="none" stroke="black" points="0,-330.5 201,-330.5 "/>
<text text-anchor="start" x="8" y="-318.5" font-family="Helvetica,sans-Serif" font-size="10.00">+ BaseTurnRate</text>
<text text-anchor="start" x="8" y="-307.5" font-family="Helvetica,sans-Serif" font-size="10.00">+ BaseLookUpRate</text>
<text text-anchor="start" x="8" y="-296.5" font-family="Helvetica,sans-Serif" font-size="10.00">+ GunOffset</text>
<text text-anchor="start" x="8" y="-285.5" font-family="Helvetica,sans-Serif" font-size="10.00">+ ProjectileClass</text>
<text text-anchor="start" x="8" y="-274.5" font-family="Helvetica,sans-Serif" font-size="10.00">+ FireSound</text>
<text text-anchor="start" x="8" y="-263.5" font-family="Helvetica,sans-Serif" font-size="10.00">+ FireAnimation</text>
<text text-anchor="start" x="8" y="-252.5" font-family="Helvetica,sans-Serif" font-size="10.00">&#45; Mesh1P</text>
<text text-anchor="start" x="8" y="-241.5" font-family="Helvetica,sans-Serif" font-size="10.00">&#45; FP_Gun</text>
<text text-anchor="start" x="8" y="-230.5" font-family="Helvetica,sans-Serif" font-size="10.00">&#45; FP_MuzzleLocation</text>
<text text-anchor="start" x="8" y="-219.5" font-family="Helvetica,sans-Serif" font-size="10.00">&#45; FirstPersonCameraComponent</text>
<polyline fill="none" stroke="black" points="0,-212.5 201,-212.5 "/>
<text text-anchor="start" x="8" y="-200.5" font-family="Helvetica,sans-Serif" font-size="10.00">+ AKidRedCharacter()</text>
<text text-anchor="start" x="8" y="-189.5" font-family="Helvetica,sans-Serif" font-size="10.00">+ GetMesh1P()</text>
<text text-anchor="start" x="8" y="-178.5" font-family="Helvetica,sans-Serif" font-size="10.00">+ GetFirstPersonCameraComponent()</text>
<text text-anchor="start" x="8" y="-167.5" font-family="Helvetica,sans-Serif" font-size="10.00"># BeginPlay()</text>
<text text-anchor="start" x="8" y="-156.5" font-family="Helvetica,sans-Serif" font-size="10.00"># OnFire()</text>
<text text-anchor="start" x="8" y="-145.5" font-family="Helvetica,sans-Serif" font-size="10.00"># MoveForward()</text>
<text text-anchor="start" x="8" y="-134.5" font-family="Helvetica,sans-Serif" font-size="10.00"># MoveRight()</text>
<text text-anchor="start" x="8" y="-123.5" font-family="Helvetica,sans-Serif" font-size="10.00"># TurnAtRate()</text>
<text text-anchor="start" x="8" y="-112.5" font-family="Helvetica,sans-Serif" font-size="10.00"># LookUpAtRate()</text>
<text text-anchor="start" x="8" y="-101.5" font-family="Helvetica,sans-Serif" font-size="10.00"># SetupPlayerInputComponent()</text>
</a>
</g>
</g>
<!-- Node3 -->
<g id="node3" class="node">
<title>Node3</title>
<g id="a_node3"><a xlink:href="classAKidRedAICharacter.html" target="_top" xlink:title="Base class for all computer controlled kid red characters.">
<polygon fill="none" stroke="black" points="43,-0.5 43,-57.5 158,-57.5 158,-0.5 43,-0.5"/>
<text text-anchor="middle" x="100.5" y="-45.5" font-family="Helvetica,sans-Serif" font-size="10.00">AKidRedAICharacter</text>
<polyline fill="none" stroke="black" points="43,-38.5 158,-38.5 "/>
<text text-anchor="middle" x="100.5" y="-26.5" font-family="Helvetica,sans-Serif" font-size="10.00"> </text>
<polyline fill="none" stroke="black" points="43,-19.5 158,-19.5 "/>
<text text-anchor="middle" x="100.5" y="-7.5" font-family="Helvetica,sans-Serif" font-size="10.00"> </text>
</a>
</g>
</g>
<!-- Node1&#45;&gt;Node3 -->
<g id="edge2" class="edge">
<title>Node1&#45;&gt;Node3</title>
<path fill="none" stroke="midnightblue" d="M100.5,-84.33C100.5,-74.48 100.5,-65.36 100.5,-57.51"/>
<polygon fill="none" stroke="midnightblue" points="97,-84.4 100.5,-94.4 104,-84.4 97,-84.4"/>
</g>
<!-- Node2 -->
<g id="node2" class="node">
<title>Node2</title>
<g id="a_node2"><a xlink:title=" ">
<polygon fill="none" stroke="#bfbfbf" points="65,-386.5 65,-443.5 136,-443.5 136,-386.5 65,-386.5"/>
<text text-anchor="middle" x="100.5" y="-431.5" font-family="Helvetica,sans-Serif" font-size="10.00">ACharacter</text>
<polyline fill="none" stroke="#bfbfbf" points="65,-424.5 136,-424.5 "/>
<text text-anchor="middle" x="100.5" y="-412.5" font-family="Helvetica,sans-Serif" font-size="10.00"> </text>
<polyline fill="none" stroke="#bfbfbf" points="65,-405.5 136,-405.5 "/>
<text text-anchor="middle" x="100.5" y="-393.5" font-family="Helvetica,sans-Serif" font-size="10.00"> </text>
</a>
</g>
</g>
<!-- Node2&#45;&gt;Node1 -->
<g id="edge1" class="edge">
<title>Node2&#45;&gt;Node1</title>
<path fill="none" stroke="midnightblue" d="M100.5,-376.2C100.5,-368.16 100.5,-359.25 100.5,-349.88"/>
<polygon fill="none" stroke="midnightblue" points="97,-376.23 100.5,-386.23 104,-376.23 97,-376.23"/>
</g>
</g>
</svg>
