<?xml version="1.0" encoding="UTF-8" standalone="no"?>
<!DOCTYPE svg PUBLIC "-//W3C//DTD SVG 1.1//EN"
 "http://www.w3.org/Graphics/SVG/1.1/DTD/svg11.dtd">
<!-- Generated by graphviz version 2.43.0 (0)
 -->
<!-- Title: AGrenade Pages: 1 -->
<svg width="320pt" height="397pt"
 viewBox="0.00 0.00 319.50 397.00" xmlns="http://www.w3.org/2000/svg" xmlns:xlink="http://www.w3.org/1999/xlink">
<g id="graph0" class="graph" transform="scale(1 1) rotate(0) translate(4 393)">
<title>AGrenade</title>
<!-- Node1 -->
<g id="node1" class="node">
<title>Node1</title>
<g id="a_node1"><a xlink:title="Base class for all grenade items.">
<polygon fill="#bfbfbf" stroke="black" points="93.5,-0.5 93.5,-79.5 240.5,-79.5 240.5,-0.5 93.5,-0.5"/>
<text text-anchor="middle" x="167" y="-67.5" font-family="Helvetica,sans-Serif" font-size="10.00">AGrenade</text>
<polyline fill="none" stroke="black" points="93.5,-60.5 240.5,-60.5 "/>
<text text-anchor="middle" x="167" y="-48.5" font-family="Helvetica,sans-Serif" font-size="10.00"> </text>
<polyline fill="none" stroke="black" points="93.5,-41.5 240.5,-41.5 "/>
<text text-anchor="start" x="101.5" y="-29.5" font-family="Helvetica,sans-Serif" font-size="10.00">+ AGrenade()</text>
<text text-anchor="start" x="101.5" y="-18.5" font-family="Helvetica,sans-Serif" font-size="10.00">+ GetGrenadeData_Copy()</text>
<text text-anchor="start" x="101.5" y="-7.5" font-family="Helvetica,sans-Serif" font-size="10.00"># OnItemRegistryFound()</text>
</a>
</g>
</g>
<!-- Node2 -->
<g id="node2" class="node">
<title>Node2</title>
<g id="a_node2"><a xlink:href="classAItem.html" target="_top" xlink:title="Base class for all items in the game.">
<polygon fill="none" stroke="black" points="0,-127.5 0,-272.5 170,-272.5 170,-127.5 0,-127.5"/>
<text text-anchor="middle" x="85" y="-260.5" font-family="Helvetica,sans-Serif" font-size="10.00">AItem</text>
<polyline fill="none" stroke="black" points="0,-253.5 170,-253.5 "/>
<text text-anchor="start" x="8" y="-241.5" font-family="Helvetica,sans-Serif" font-size="10.00"># Mesh</text>
<text text-anchor="start" x="8" y="-230.5" font-family="Helvetica,sans-Serif" font-size="10.00"># ItemRegistryType</text>
<text text-anchor="start" x="8" y="-219.5" font-family="Helvetica,sans-Serif" font-size="10.00"># TableRowName</text>
<polyline fill="none" stroke="black" points="0,-212.5 170,-212.5 "/>
<text text-anchor="start" x="8" y="-200.5" font-family="Helvetica,sans-Serif" font-size="10.00">+ AItem()</text>
<text text-anchor="start" x="8" y="-189.5" font-family="Helvetica,sans-Serif" font-size="10.00">+ GetItemData_Copy()</text>
<text text-anchor="start" x="8" y="-178.5" font-family="Helvetica,sans-Serif" font-size="10.00">+ GetMesh()</text>
<text text-anchor="start" x="8" y="-167.5" font-family="Helvetica,sans-Serif" font-size="10.00"># BeginPlay()</text>
<text text-anchor="start" x="8" y="-156.5" font-family="Helvetica,sans-Serif" font-size="10.00"># Tick()</text>
<text text-anchor="start" x="8" y="-145.5" font-family="Helvetica,sans-Serif" font-size="10.00"># OnItemRegistryFound()</text>
<text text-anchor="start" x="8" y="-134.5" font-family="Helvetica,sans-Serif" font-size="10.00">&#45; ApplyItemDataFromRegistry()</text>
</a>
</g>
</g>
<!-- Node2&#45;&gt;Node1 -->
<g id="edge1" class="edge">
<title>Node2&#45;&gt;Node1</title>
<path fill="none" stroke="midnightblue" d="M126.79,-118.48C133.84,-104.9 140.85,-91.38 147.01,-79.52"/>
<polygon fill="none" stroke="midnightblue" points="123.66,-116.91 122.16,-127.4 129.87,-120.13 123.66,-116.91"/>
</g>
<!-- Node3 -->
<g id="node3" class="node">
<title>Node3</title>
<g id="a_node3"><a xlink:title=" ">
<polygon fill="none" stroke="#bfbfbf" points="16.5,-326 16.5,-383 65.5,-383 65.5,-326 16.5,-326"/>
<text text-anchor="middle" x="41" y="-371" font-family="Helvetica,sans-Serif" font-size="10.00">AActor</text>
<polyline fill="none" stroke="#bfbfbf" points="16.5,-364 65.5,-364 "/>
<text text-anchor="middle" x="41" y="-352" font-family="Helvetica,sans-Serif" font-size="10.00"> </text>
<polyline fill="none" stroke="#bfbfbf" points="16.5,-345 65.5,-345 "/>
<text text-anchor="middle" x="41" y="-333" font-family="Helvetica,sans-Serif" font-size="10.00"> </text>
</a>
</g>
</g>
<!-- Node3&#45;&gt;Node2 -->
<g id="edge2" class="edge">
<title>Node3&#45;&gt;Node2</title>
<path fill="none" stroke="midnightblue" d="M51.75,-316.23C55.56,-303.02 59.99,-287.67 64.35,-272.57"/>
<polygon fill="none" stroke="midnightblue" points="48.38,-315.31 48.97,-325.88 55.1,-317.25 48.38,-315.31"/>
</g>
<!-- Node4 -->
<g id="node4" class="node">
<title>Node4</title>
<g id="a_node4"><a xlink:href="structFItemData.html" target="_top" xlink:title=" ">
<polygon fill="none" stroke="black" points="84,-320.5 84,-388.5 174,-388.5 174,-320.5 84,-320.5"/>
<text text-anchor="middle" x="129" y="-376.5" font-family="Helvetica,sans-Serif" font-size="10.00">FItemData</text>
<polyline fill="none" stroke="black" points="84,-369.5 174,-369.5 "/>
<text text-anchor="start" x="92" y="-357.5" font-family="Helvetica,sans-Serif" font-size="10.00">+ ItemName</text>
<text text-anchor="start" x="92" y="-346.5" font-family="Helvetica,sans-Serif" font-size="10.00">+ ItemNameUI</text>
<polyline fill="none" stroke="black" points="84,-339.5 174,-339.5 "/>
<text text-anchor="middle" x="129" y="-327.5" font-family="Helvetica,sans-Serif" font-size="10.00"> </text>
</a>
</g>
</g>
<!-- Node4&#45;&gt;Node2 -->
<g id="edge3" class="edge">
<title>Node4&#45;&gt;Node2</title>
<path fill="none" stroke="#404040" d="M119.45,-320.41C116.34,-309.61 112.72,-297.09 109.04,-284.3"/>
<polygon fill="none" stroke="#404040" points="108.96,-284.06 103.46,-279.4 105.64,-272.53 111.14,-277.18 108.96,-284.06"/>
<text text-anchor="middle" x="143" y="-294" font-family="Helvetica,sans-Serif" font-size="10.00"> #ItemData</text>
</g>
<!-- Node5 -->
<g id="node5" class="node">
<title>Node5</title>
<g id="a_node5"><a xlink:href="structFGrenadeItemData.html" target="_top" xlink:title=" ">
<polygon fill="none" stroke="black" points="188.5,-171.5 188.5,-228.5 311.5,-228.5 311.5,-171.5 188.5,-171.5"/>
<text text-anchor="middle" x="250" y="-216.5" font-family="Helvetica,sans-Serif" font-size="10.00">FGrenadeItemData</text>
<polyline fill="none" stroke="black" points="188.5,-209.5 311.5,-209.5 "/>
<text text-anchor="start" x="196.5" y="-197.5" font-family="Helvetica,sans-Serif" font-size="10.00">+ DetonationDamage</text>
<polyline fill="none" stroke="black" points="188.5,-190.5 311.5,-190.5 "/>
<text text-anchor="middle" x="250" y="-178.5" font-family="Helvetica,sans-Serif" font-size="10.00"> </text>
</a>
</g>
</g>
<!-- Node5&#45;&gt;Node1 -->
<g id="edge4" class="edge">
<title>Node5&#45;&gt;Node1</title>
<path fill="none" stroke="#404040" d="M235.54,-171.48C223.83,-149.18 207.02,-117.18 192.98,-90.45"/>
<polygon fill="none" stroke="#404040" points="192.93,-90.37 186.6,-86.92 187.35,-79.75 193.69,-83.2 192.93,-90.37"/>
<text text-anchor="middle" x="251.5" y="-101" font-family="Helvetica,sans-Serif" font-size="10.00"> #GrenadeItemData</text>
</g>
</g>
</svg>
