<?xml version="1.0" encoding="UTF-8" standalone="no"?>
<!DOCTYPE svg PUBLIC "-//W3C//DTD SVG 1.1//EN"
 "http://www.w3.org/Graphics/SVG/1.1/DTD/svg11.dtd">
<!-- Generated by graphviz version 2.43.0 (0)
 -->
<!-- Title: AKidRedPlayerController Pages: 1 -->
<svg width="213pt" height="226pt"
 viewBox="0.00 0.00 213.00 226.00" xmlns="http://www.w3.org/2000/svg" xmlns:xlink="http://www.w3.org/1999/xlink">
<g id="graph0" class="graph" transform="scale(1 1) rotate(0) translate(4 222)">
<title>AKidRedPlayerController</title>
<!-- Node1 -->
<g id="node1" class="node">
<title>Node1</title>
<g id="a_node1"><a xlink:title=" ">
<polygon fill="#bfbfbf" stroke="black" points="0,-0.5 0,-123.5 205,-123.5 205,-0.5 0,-0.5"/>
<text text-anchor="middle" x="102.5" y="-111.5" font-family="Helvetica,sans-Serif" font-size="10.00">AKidRedPlayerController</text>
<polyline fill="none" stroke="black" points="0,-104.5 205,-104.5 "/>
<text text-anchor="middle" x="102.5" y="-92.5" font-family="Helvetica,sans-Serif" font-size="10.00"> </text>
<polyline fill="none" stroke="black" points="0,-85.5 205,-85.5 "/>
<text text-anchor="start" x="8" y="-73.5" font-family="Helvetica,sans-Serif" font-size="10.00">+ AKidRedPlayerController()</text>
<text text-anchor="start" x="8" y="-62.5" font-family="Helvetica,sans-Serif" font-size="10.00">+ ShowHUD()</text>
<text text-anchor="start" x="8" y="-51.5" font-family="Helvetica,sans-Serif" font-size="10.00">+ HideHUD()</text>
<text text-anchor="start" x="8" y="-40.5" font-family="Helvetica,sans-Serif" font-size="10.00">+ ToggleHUD()</text>
<text text-anchor="start" x="8" y="-29.5" font-family="Helvetica,sans-Serif" font-size="10.00"># OnPossess()</text>
<text text-anchor="start" x="8" y="-18.5" font-family="Helvetica,sans-Serif" font-size="10.00"># Client_OnPossess()</text>
<text text-anchor="start" x="8" y="-7.5" font-family="Helvetica,sans-Serif" font-size="10.00"># Client_OnPossess_Implementation()</text>
</a>
</g>
</g>
<!-- Node2 -->
<g id="node2" class="node">
<title>Node2</title>
<g id="a_node2"><a xlink:title=" ">
<polygon fill="none" stroke="#bfbfbf" points="51.5,-160.5 51.5,-217.5 153.5,-217.5 153.5,-160.5 51.5,-160.5"/>
<text text-anchor="middle" x="102.5" y="-205.5" font-family="Helvetica,sans-Serif" font-size="10.00">APlayerController</text>
<polyline fill="none" stroke="#bfbfbf" points="51.5,-198.5 153.5,-198.5 "/>
<text text-anchor="middle" x="102.5" y="-186.5" font-family="Helvetica,sans-Serif" font-size="10.00"> </text>
<polyline fill="none" stroke="#bfbfbf" points="51.5,-179.5 153.5,-179.5 "/>
<text text-anchor="middle" x="102.5" y="-167.5" font-family="Helvetica,sans-Serif" font-size="10.00"> </text>
</a>
</g>
</g>
<!-- Node2&#45;&gt;Node1 -->
<g id="edge1" class="edge">
<title>Node2&#45;&gt;Node1</title>
<path fill="none" stroke="midnightblue" d="M102.5,-150.1C102.5,-141.74 102.5,-132.68 102.5,-123.67"/>
<polygon fill="none" stroke="midnightblue" points="99,-150.26 102.5,-160.26 106,-150.26 99,-150.26"/>
</g>
</g>
</svg>
