<?xml version="1.0" encoding="UTF-8" standalone="no"?>
<!DOCTYPE svg PUBLIC "-//W3C//DTD SVG 1.1//EN"
 "http://www.w3.org/Graphics/SVG/1.1/DTD/svg11.dtd">
<!-- Generated by graphviz version 2.43.0 (0)
 -->
<!-- Title: AItem Pages: 1 -->
<svg width="318pt" height="375pt"
 viewBox="0.00 0.00 318.00 375.00" xmlns="http://www.w3.org/2000/svg" xmlns:xlink="http://www.w3.org/1999/xlink">
<g id="graph0" class="graph" transform="scale(1 1) rotate(0) translate(4 371)">
<title>AItem</title>
<!-- Node1 -->
<g id="node1" class="node">
<title>Node1</title>
<g id="a_node1"><a xlink:title="Base class for all items in the game.">
<polygon fill="#bfbfbf" stroke="black" points="70.5,-116.5 70.5,-272.5 240.5,-272.5 240.5,-116.5 70.5,-116.5"/>
<text text-anchor="middle" x="155.5" y="-260.5" font-family="Helvetica,sans-Serif" font-size="10.00">AItem</text>
<polyline fill="none" stroke="black" points="70.5,-253.5 240.5,-253.5 "/>
<text text-anchor="start" x="78.5" y="-241.5" font-family="Helvetica,sans-Serif" font-size="10.00"># Mesh</text>
<text text-anchor="start" x="78.5" y="-230.5" font-family="Helvetica,sans-Serif" font-size="10.00"># ItemRegistryType</text>
<text text-anchor="start" x="78.5" y="-219.5" font-family="Helvetica,sans-Serif" font-size="10.00"># TableRowName</text>
<text text-anchor="start" x="78.5" y="-208.5" font-family="Helvetica,sans-Serif" font-size="10.00"># ItemData</text>
<polyline fill="none" stroke="black" points="70.5,-201.5 240.5,-201.5 "/>
<text text-anchor="start" x="78.5" y="-189.5" font-family="Helvetica,sans-Serif" font-size="10.00">+ AItem()</text>
<text text-anchor="start" x="78.5" y="-178.5" font-family="Helvetica,sans-Serif" font-size="10.00">+ GetItemData_Copy()</text>
<text text-anchor="start" x="78.5" y="-167.5" font-family="Helvetica,sans-Serif" font-size="10.00">+ GetMesh()</text>
<text text-anchor="start" x="78.5" y="-156.5" font-family="Helvetica,sans-Serif" font-size="10.00"># BeginPlay()</text>
<text text-anchor="start" x="78.5" y="-145.5" font-family="Helvetica,sans-Serif" font-size="10.00"># Tick()</text>
<text text-anchor="start" x="78.5" y="-134.5" font-family="Helvetica,sans-Serif" font-size="10.00"># OnItemRegistryFound()</text>
<text text-anchor="start" x="78.5" y="-123.5" font-family="Helvetica,sans-Serif" font-size="10.00">&#45; ApplyItemDataFromRegistry()</text>
</a>
</g>
</g>
<!-- Node3 -->
<g id="node3" class="node">
<title>Node3</title>
<g id="a_node3"><a xlink:href="classAGrenade.html" target="_top" xlink:title="Base class for all grenade items.">
<polygon fill="none" stroke="black" points="0,-0.5 0,-79.5 147,-79.5 147,-0.5 0,-0.5"/>
<text text-anchor="middle" x="73.5" y="-67.5" font-family="Helvetica,sans-Serif" font-size="10.00">AGrenade</text>
<polyline fill="none" stroke="black" points="0,-60.5 147,-60.5 "/>
<text text-anchor="start" x="8" y="-48.5" font-family="Helvetica,sans-Serif" font-size="10.00"># GrenadeItemData</text>
<polyline fill="none" stroke="black" points="0,-41.5 147,-41.5 "/>
<text text-anchor="start" x="8" y="-29.5" font-family="Helvetica,sans-Serif" font-size="10.00">+ AGrenade()</text>
<text text-anchor="start" x="8" y="-18.5" font-family="Helvetica,sans-Serif" font-size="10.00">+ GetGrenadeData_Copy()</text>
<text text-anchor="start" x="8" y="-7.5" font-family="Helvetica,sans-Serif" font-size="10.00"># OnItemRegistryFound()</text>
</a>
</g>
</g>
<!-- Node1&#45;&gt;Node3 -->
<g id="edge2" class="edge">
<title>Node1&#45;&gt;Node3</title>
<path fill="none" stroke="midnightblue" d="M109.23,-107.45C104.04,-97.79 98.96,-88.34 94.33,-79.75"/>
<polygon fill="none" stroke="midnightblue" points="106.2,-109.21 114.02,-116.36 112.37,-105.89 106.2,-109.21"/>
</g>
<!-- Node4 -->
<g id="node4" class="node">
<title>Node4</title>
<g id="a_node4"><a xlink:href="classAWeapon.html" target="_top" xlink:title="Base class for all weapon items.">
<polygon fill="none" stroke="black" points="165,-0.5 165,-79.5 310,-79.5 310,-0.5 165,-0.5"/>
<text text-anchor="middle" x="237.5" y="-67.5" font-family="Helvetica,sans-Serif" font-size="10.00">AWeapon</text>
<polyline fill="none" stroke="black" points="165,-60.5 310,-60.5 "/>
<text text-anchor="start" x="173" y="-48.5" font-family="Helvetica,sans-Serif" font-size="10.00"># WeaponItemData</text>
<polyline fill="none" stroke="black" points="165,-41.5 310,-41.5 "/>
<text text-anchor="start" x="173" y="-29.5" font-family="Helvetica,sans-Serif" font-size="10.00">+ AWeapon()</text>
<text text-anchor="start" x="173" y="-18.5" font-family="Helvetica,sans-Serif" font-size="10.00">+ GetWeaponData_Copy()</text>
<text text-anchor="start" x="173" y="-7.5" font-family="Helvetica,sans-Serif" font-size="10.00"># OnItemRegistryFound()</text>
</a>
</g>
</g>
<!-- Node1&#45;&gt;Node4 -->
<g id="edge3" class="edge">
<title>Node1&#45;&gt;Node4</title>
<path fill="none" stroke="midnightblue" d="M201.77,-107.45C206.96,-97.79 212.04,-88.34 216.67,-79.75"/>
<polygon fill="none" stroke="midnightblue" points="198.63,-105.89 196.98,-116.36 204.8,-109.21 198.63,-105.89"/>
</g>
<!-- Node2 -->
<g id="node2" class="node">
<title>Node2</title>
<g id="a_node2"><a xlink:title=" ">
<polygon fill="none" stroke="#bfbfbf" points="131,-309.5 131,-366.5 180,-366.5 180,-309.5 131,-309.5"/>
<text text-anchor="middle" x="155.5" y="-354.5" font-family="Helvetica,sans-Serif" font-size="10.00">AActor</text>
<polyline fill="none" stroke="#bfbfbf" points="131,-347.5 180,-347.5 "/>
<text text-anchor="middle" x="155.5" y="-335.5" font-family="Helvetica,sans-Serif" font-size="10.00"> </text>
<polyline fill="none" stroke="#bfbfbf" points="131,-328.5 180,-328.5 "/>
<text text-anchor="middle" x="155.5" y="-316.5" font-family="Helvetica,sans-Serif" font-size="10.00"> </text>
</a>
</g>
</g>
<!-- Node2&#45;&gt;Node1 -->
<g id="edge1" class="edge">
<title>Node2&#45;&gt;Node1</title>
<path fill="none" stroke="midnightblue" d="M155.5,-299.34C155.5,-291.04 155.5,-281.96 155.5,-272.74"/>
<polygon fill="none" stroke="midnightblue" points="152,-299.38 155.5,-309.38 159,-299.38 152,-299.38"/>
</g>
</g>
</svg>
