<?xml version="1.0" encoding="UTF-8" standalone="no"?>
<!DOCTYPE svg PUBLIC "-//W3C//DTD SVG 1.1//EN"
 "http://www.w3.org/Graphics/SVG/1.1/DTD/svg11.dtd">
<!-- Generated by graphviz version 2.43.0 (0)
 -->
<!-- Title: Graphical Class Hierarchy Pages: 1 -->
<svg width="298pt" height="85pt"
 viewBox="0.00 0.00 298.00 85.00" xmlns="http://www.w3.org/2000/svg" xmlns:xlink="http://www.w3.org/1999/xlink">
<g id="graph0" class="graph" transform="scale(1 1) rotate(0) translate(4 81)">
<title>Graphical Class Hierarchy</title>
<!-- Node60 -->
<g id="node1" class="node">
<title>Node60</title>
<g id="a_node1"><a xlink:title=" ">
<polygon fill="none" stroke="#bfbfbf" points="0,-19.5 0,-38.5 49,-38.5 49,-19.5 0,-19.5"/>
<text text-anchor="middle" x="24.5" y="-26.5" font-family="Helvetica,sans-Serif" font-size="10.00">AActor</text>
</a>
</g>
</g>
<!-- Node0 -->
<g id="node2" class="node">
<title>Node0</title>
<g id="a_node2"><a xlink:href="classAItem.html" target="_top" xlink:title="Base class for all items in the game.">
<polygon fill="none" stroke="black" points="114,-38.5 114,-57.5 160,-57.5 160,-38.5 114,-38.5"/>
<text text-anchor="middle" x="137" y="-45.5" font-family="Helvetica,sans-Serif" font-size="10.00">AItem</text>
</a>
</g>
</g>
<!-- Node60&#45;&gt;Node0 -->
<g id="edge1" class="edge">
<title>Node60&#45;&gt;Node0</title>
<path fill="none" stroke="midnightblue" d="M59.18,-34.79C76.92,-37.84 98.18,-41.5 113.84,-44.19"/>
<polygon fill="midnightblue" stroke="midnightblue" points="59.65,-31.32 49.21,-33.08 58.47,-38.22 59.65,-31.32"/>
</g>
<!-- Node64 -->
<g id="node5" class="node">
<title>Node64</title>
<g id="a_node5"><a xlink:href="classAKidRedProjectile.html" target="_top" xlink:title=" ">
<polygon fill="none" stroke="black" points="85,-0.5 85,-19.5 189,-19.5 189,-0.5 85,-0.5"/>
<text text-anchor="middle" x="137" y="-7.5" font-family="Helvetica,sans-Serif" font-size="10.00">AKidRedProjectile</text>
</a>
</g>
</g>
<!-- Node60&#45;&gt;Node64 -->
<g id="edge4" class="edge">
<title>Node60&#45;&gt;Node64</title>
<path fill="none" stroke="midnightblue" d="M59.27,-23.19C67.29,-21.82 76.02,-20.31 84.63,-18.83"/>
<polygon fill="midnightblue" stroke="midnightblue" points="58.47,-19.78 49.21,-24.92 59.65,-26.68 58.47,-19.78"/>
</g>
<!-- Node1 -->
<g id="node3" class="node">
<title>Node1</title>
<g id="a_node3"><a xlink:href="classAGrenade.html" target="_top" xlink:title="Base class for all grenade items.">
<polygon fill="none" stroke="black" points="225,-57.5 225,-76.5 290,-76.5 290,-57.5 225,-57.5"/>
<text text-anchor="middle" x="257.5" y="-64.5" font-family="Helvetica,sans-Serif" font-size="10.00">AGrenade</text>
</a>
</g>
</g>
<!-- Node0&#45;&gt;Node1 -->
<g id="edge2" class="edge">
<title>Node0&#45;&gt;Node1</title>
<path fill="none" stroke="midnightblue" d="M170.03,-53.14C187.02,-55.86 207.83,-59.2 224.77,-61.91"/>
<polygon fill="midnightblue" stroke="midnightblue" points="170.44,-49.66 160.01,-51.53 169.33,-56.57 170.44,-49.66"/>
</g>
<!-- Node2 -->
<g id="node4" class="node">
<title>Node2</title>
<g id="a_node4"><a xlink:href="classAWeapon.html" target="_top" xlink:title="Base class for all weapon items.">
<polygon fill="none" stroke="black" points="226.5,-19.5 226.5,-38.5 288.5,-38.5 288.5,-19.5 226.5,-19.5"/>
<text text-anchor="middle" x="257.5" y="-26.5" font-family="Helvetica,sans-Serif" font-size="10.00">AWeapon</text>
</a>
</g>
</g>
<!-- Node0&#45;&gt;Node2 -->
<g id="edge3" class="edge">
<title>Node0&#45;&gt;Node2</title>
<path fill="none" stroke="midnightblue" d="M170.26,-42.83C187.66,-40.04 209.02,-36.61 226.12,-33.87"/>
<polygon fill="midnightblue" stroke="midnightblue" points="169.33,-39.43 160.01,-44.47 170.44,-46.34 169.33,-39.43"/>
</g>
</g>
</svg>
