<?xml version="1.0" encoding="UTF-8" standalone="no"?>
<!DOCTYPE svg PUBLIC "-//W3C//DTD SVG 1.1//EN"
 "http://www.w3.org/Graphics/SVG/1.1/DTD/svg11.dtd">
<!-- Generated by graphviz version 2.43.0 (0)
 -->
<!-- Title: Graphical Class Hierarchy Pages: 1 -->
<svg width="433pt" height="123pt"
 viewBox="0.00 0.00 433.00 123.00" xmlns="http://www.w3.org/2000/svg" xmlns:xlink="http://www.w3.org/1999/xlink">
<g id="graph0" class="graph" transform="scale(1 1) rotate(0) translate(4 119)">
<title>Graphical Class Hierarchy</title>
<!-- Node25 -->
<g id="node1" class="node">
<title>Node25</title>
<g id="a_node1"><a xlink:title=" ">
<polygon fill="none" stroke="#bfbfbf" points="0,-57.5 0,-76.5 92,-76.5 92,-57.5 0,-57.5"/>
<text text-anchor="middle" x="46" y="-64.5" font-family="Helvetica,sans-Serif" font-size="10.00">FTableRowBase</text>
</a>
</g>
</g>
<!-- Node0 -->
<g id="node2" class="node">
<title>Node0</title>
<g id="a_node2"><a xlink:href="structFAnimationTable.html" target="_top" xlink:title=" ">
<polygon fill="none" stroke="black" points="142.5,-95.5 142.5,-114.5 239.5,-114.5 239.5,-95.5 142.5,-95.5"/>
<text text-anchor="middle" x="191" y="-102.5" font-family="Helvetica,sans-Serif" font-size="10.00">FAnimationTable</text>
</a>
</g>
</g>
<!-- Node25&#45;&gt;Node0 -->
<g id="edge1" class="edge">
<title>Node25&#45;&gt;Node0</title>
<path fill="none" stroke="midnightblue" d="M92.81,-79.17C112.59,-84.43 135.38,-90.49 153.93,-95.41"/>
<polygon fill="midnightblue" stroke="midnightblue" points="93.65,-75.77 83.08,-76.59 91.85,-82.54 93.65,-75.77"/>
</g>
<!-- Node27 -->
<g id="node3" class="node">
<title>Node27</title>
<g id="a_node3"><a xlink:href="structFCharacterProfileTable.html" target="_top" xlink:title=" ">
<polygon fill="none" stroke="black" points="128,-57.5 128,-76.5 254,-76.5 254,-57.5 128,-57.5"/>
<text text-anchor="middle" x="191" y="-64.5" font-family="Helvetica,sans-Serif" font-size="10.00">FCharacterProfileTable</text>
</a>
</g>
</g>
<!-- Node25&#45;&gt;Node27 -->
<g id="edge2" class="edge">
<title>Node25&#45;&gt;Node27</title>
<path fill="none" stroke="midnightblue" d="M102.26,-67C110.62,-67 119.3,-67 127.8,-67"/>
<polygon fill="midnightblue" stroke="midnightblue" points="102.25,-63.5 92.25,-67 102.25,-70.5 102.25,-63.5"/>
</g>
<!-- Node28 -->
<g id="node4" class="node">
<title>Node28</title>
<g id="a_node4"><a xlink:href="structFItemDataTable.html" target="_top" xlink:title=" ">
<polygon fill="none" stroke="black" points="144,-19.5 144,-38.5 238,-38.5 238,-19.5 144,-19.5"/>
<text text-anchor="middle" x="191" y="-26.5" font-family="Helvetica,sans-Serif" font-size="10.00">FItemDataTable</text>
</a>
</g>
</g>
<!-- Node25&#45;&gt;Node28 -->
<g id="edge3" class="edge">
<title>Node25&#45;&gt;Node28</title>
<path fill="none" stroke="midnightblue" d="M92.81,-54.83C112.59,-49.57 135.38,-43.51 153.93,-38.59"/>
<polygon fill="midnightblue" stroke="midnightblue" points="91.85,-51.46 83.08,-57.41 93.65,-58.23 91.85,-51.46"/>
</g>
<!-- Node29 -->
<g id="node5" class="node">
<title>Node29</title>
<g id="a_node5"><a xlink:href="structFGrenadeItemDataTable.html" target="_top" xlink:title=" ">
<polygon fill="none" stroke="black" points="290,-38.5 290,-57.5 425,-57.5 425,-38.5 290,-38.5"/>
<text text-anchor="middle" x="357.5" y="-45.5" font-family="Helvetica,sans-Serif" font-size="10.00">FGrenadeItemDataTable</text>
</a>
</g>
</g>
<!-- Node28&#45;&gt;Node29 -->
<g id="edge4" class="edge">
<title>Node28&#45;&gt;Node29</title>
<path fill="none" stroke="midnightblue" d="M248.24,-35.5C261.59,-37.04 275.95,-38.7 289.72,-40.29"/>
<polygon fill="midnightblue" stroke="midnightblue" points="248.6,-32.01 238.26,-34.34 247.79,-38.97 248.6,-32.01"/>
</g>
<!-- Node30 -->
<g id="node6" class="node">
<title>Node30</title>
<g id="a_node6"><a xlink:href="structFWeaponItemDataTable.html" target="_top" xlink:title=" ">
<polygon fill="none" stroke="black" points="291,-0.5 291,-19.5 424,-19.5 424,-0.5 291,-0.5"/>
<text text-anchor="middle" x="357.5" y="-7.5" font-family="Helvetica,sans-Serif" font-size="10.00">FWeaponItemDataTable</text>
</a>
</g>
</g>
<!-- Node28&#45;&gt;Node30 -->
<g id="edge5" class="edge">
<title>Node28&#45;&gt;Node30</title>
<path fill="none" stroke="midnightblue" d="M248.48,-22.48C262.16,-20.9 276.89,-19.19 290.95,-17.57"/>
<polygon fill="midnightblue" stroke="midnightblue" points="247.79,-19.03 238.26,-23.66 248.6,-25.99 247.79,-19.03"/>
</g>
</g>
</svg>
