<?xml version="1.0" encoding="UTF-8" standalone="no"?>
<!DOCTYPE svg PUBLIC "-//W3C//DTD SVG 1.1//EN"
 "http://www.w3.org/Graphics/SVG/1.1/DTD/svg11.dtd">
<!-- Generated by graphviz version 2.43.0 (0)
 -->
<!-- Title: Graphical Class Hierarchy Pages: 1 -->
<svg width="244pt" height="104pt"
 viewBox="0.00 0.00 244.00 104.00" xmlns="http://www.w3.org/2000/svg" xmlns:xlink="http://www.w3.org/1999/xlink">
<g id="graph0" class="graph" transform="scale(1 1) rotate(0) translate(4 100)">
<title>Graphical Class Hierarchy</title>
<!-- Node20 -->
<g id="node1" class="node">
<title>Node20</title>
<g id="a_node1"><a xlink:title=" ">
<polygon fill="none" stroke="#bfbfbf" points="0,-38.5 0,-57.5 99,-57.5 99,-38.5 0,-38.5"/>
<text text-anchor="middle" x="49.5" y="-45.5" font-family="Helvetica,sans-Serif" font-size="10.00">IModuleInterface</text>
</a>
</g>
</g>
<!-- Node0 -->
<g id="node2" class="node">
<title>Node0</title>
<g id="a_node2"><a xlink:href="classFKidRedEditor.html" target="_top" xlink:title=" ">
<polygon fill="none" stroke="black" points="142.5,-76.5 142.5,-95.5 228.5,-95.5 228.5,-76.5 142.5,-76.5"/>
<text text-anchor="middle" x="185.5" y="-83.5" font-family="Helvetica,sans-Serif" font-size="10.00">FKidRedEditor</text>
</a>
</g>
</g>
<!-- Node20&#45;&gt;Node0 -->
<g id="edge1" class="edge">
<title>Node20&#45;&gt;Node0</title>
<path fill="none" stroke="midnightblue" d="M93.94,-60.32C112.35,-65.54 133.48,-71.53 150.7,-76.41"/>
<polygon fill="midnightblue" stroke="midnightblue" points="94.89,-56.95 84.31,-57.59 92.98,-63.68 94.89,-56.95"/>
</g>
<!-- Node22 -->
<g id="node3" class="node">
<title>Node22</title>
<g id="a_node3"><a xlink:href="classFKidRedUI.html" target="_top" xlink:title=" ">
<polygon fill="none" stroke="black" points="151.5,-38.5 151.5,-57.5 219.5,-57.5 219.5,-38.5 151.5,-38.5"/>
<text text-anchor="middle" x="185.5" y="-45.5" font-family="Helvetica,sans-Serif" font-size="10.00">FKidRedUI</text>
</a>
</g>
</g>
<!-- Node20&#45;&gt;Node22 -->
<g id="edge2" class="edge">
<title>Node20&#45;&gt;Node22</title>
<path fill="none" stroke="midnightblue" d="M109.59,-48C123.96,-48 138.82,-48 151.48,-48"/>
<polygon fill="midnightblue" stroke="midnightblue" points="109.26,-44.5 99.26,-48 109.26,-51.5 109.26,-44.5"/>
</g>
<!-- Node23 -->
<g id="node4" class="node">
<title>Node23</title>
<g id="a_node4"><a xlink:href="classFKidRedWeapons.html" target="_top" xlink:title=" ">
<polygon fill="none" stroke="black" points="135,-0.5 135,-19.5 236,-19.5 236,-0.5 135,-0.5"/>
<text text-anchor="middle" x="185.5" y="-7.5" font-family="Helvetica,sans-Serif" font-size="10.00">FKidRedWeapons</text>
</a>
</g>
</g>
<!-- Node20&#45;&gt;Node23 -->
<g id="edge3" class="edge">
<title>Node20&#45;&gt;Node23</title>
<path fill="none" stroke="midnightblue" d="M93.94,-35.68C112.35,-30.46 133.48,-24.47 150.7,-19.59"/>
<polygon fill="midnightblue" stroke="midnightblue" points="92.98,-32.32 84.31,-38.41 94.89,-39.05 92.98,-32.32"/>
</g>
</g>
</svg>
