<?xml version="1.0" encoding="UTF-8" standalone="no"?>
<!DOCTYPE svg PUBLIC "-//W3C//DTD SVG 1.1//EN"
 "http://www.w3.org/Graphics/SVG/1.1/DTD/svg11.dtd">
<!-- Generated by graphviz version 2.43.0 (0)
 -->
<!-- Title: FItemDataTable Pages: 1 -->
<svg width="294pt" height="254pt"
 viewBox="0.00 0.00 294.00 254.00" xmlns="http://www.w3.org/2000/svg" xmlns:xlink="http://www.w3.org/1999/xlink">
<g id="graph0" class="graph" transform="scale(1 1) rotate(0) translate(4 250)">
<title>FItemDataTable</title>
<!-- Node1 -->
<g id="node1" class="node">
<title>Node1</title>
<g id="a_node1"><a xlink:title=" ">
<polygon fill="#bfbfbf" stroke="black" points="96.5,-94.5 96.5,-151.5 190.5,-151.5 190.5,-94.5 96.5,-94.5"/>
<text text-anchor="middle" x="143.5" y="-139.5" font-family="Helvetica,sans-Serif" font-size="10.00">FItemDataTable</text>
<polyline fill="none" stroke="black" points="96.5,-132.5 190.5,-132.5 "/>
<text text-anchor="start" x="104.5" y="-120.5" font-family="Helvetica,sans-Serif" font-size="10.00">+ ItemData</text>
<polyline fill="none" stroke="black" points="96.5,-113.5 190.5,-113.5 "/>
<text text-anchor="middle" x="143.5" y="-101.5" font-family="Helvetica,sans-Serif" font-size="10.00"> </text>
</a>
</g>
</g>
<!-- Node3 -->
<g id="node3" class="node">
<title>Node3</title>
<g id="a_node3"><a xlink:href="structFGrenadeItemDataTable.html" target="_top" xlink:title=" ">
<polygon fill="none" stroke="black" points="0,-0.5 0,-57.5 135,-57.5 135,-0.5 0,-0.5"/>
<text text-anchor="middle" x="67.5" y="-45.5" font-family="Helvetica,sans-Serif" font-size="10.00">FGrenadeItemDataTable</text>
<polyline fill="none" stroke="black" points="0,-38.5 135,-38.5 "/>
<text text-anchor="start" x="8" y="-26.5" font-family="Helvetica,sans-Serif" font-size="10.00">+ GrenadeItemData</text>
<polyline fill="none" stroke="black" points="0,-19.5 135,-19.5 "/>
<text text-anchor="middle" x="67.5" y="-7.5" font-family="Helvetica,sans-Serif" font-size="10.00"> </text>
</a>
</g>
</g>
<!-- Node1&#45;&gt;Node3 -->
<g id="edge2" class="edge">
<title>Node1&#45;&gt;Node3</title>
<path fill="none" stroke="midnightblue" d="M114.19,-86.52C106.26,-76.92 97.8,-66.68 90.29,-57.58"/>
<polygon fill="none" stroke="midnightblue" points="111.63,-88.92 120.7,-94.4 117.03,-84.46 111.63,-88.92"/>
</g>
<!-- Node4 -->
<g id="node4" class="node">
<title>Node4</title>
<g id="a_node4"><a xlink:href="structFWeaponItemDataTable.html" target="_top" xlink:title=" ">
<polygon fill="none" stroke="black" points="153,-0.5 153,-57.5 286,-57.5 286,-0.5 153,-0.5"/>
<text text-anchor="middle" x="219.5" y="-45.5" font-family="Helvetica,sans-Serif" font-size="10.00">FWeaponItemDataTable</text>
<polyline fill="none" stroke="black" points="153,-38.5 286,-38.5 "/>
<text text-anchor="start" x="161" y="-26.5" font-family="Helvetica,sans-Serif" font-size="10.00">+ WeaponItemData</text>
<polyline fill="none" stroke="black" points="153,-19.5 286,-19.5 "/>
<text text-anchor="middle" x="219.5" y="-7.5" font-family="Helvetica,sans-Serif" font-size="10.00"> </text>
</a>
</g>
</g>
<!-- Node1&#45;&gt;Node4 -->
<g id="edge3" class="edge">
<title>Node1&#45;&gt;Node4</title>
<path fill="none" stroke="midnightblue" d="M172.81,-86.52C180.74,-76.92 189.2,-66.68 196.71,-57.58"/>
<polygon fill="none" stroke="midnightblue" points="169.97,-84.46 166.3,-94.4 175.37,-88.92 169.97,-84.46"/>
</g>
<!-- Node2 -->
<g id="node2" class="node">
<title>Node2</title>
<g id="a_node2"><a xlink:title=" ">
<polygon fill="none" stroke="#bfbfbf" points="97.5,-188.5 97.5,-245.5 189.5,-245.5 189.5,-188.5 97.5,-188.5"/>
<text text-anchor="middle" x="143.5" y="-233.5" font-family="Helvetica,sans-Serif" font-size="10.00">FTableRowBase</text>
<polyline fill="none" stroke="#bfbfbf" points="97.5,-226.5 189.5,-226.5 "/>
<text text-anchor="middle" x="143.5" y="-214.5" font-family="Helvetica,sans-Serif" font-size="10.00"> </text>
<polyline fill="none" stroke="#bfbfbf" points="97.5,-207.5 189.5,-207.5 "/>
<text text-anchor="middle" x="143.5" y="-195.5" font-family="Helvetica,sans-Serif" font-size="10.00"> </text>
</a>
</g>
</g>
<!-- Node2&#45;&gt;Node1 -->
<g id="edge1" class="edge">
<title>Node2&#45;&gt;Node1</title>
<path fill="none" stroke="midnightblue" d="M143.5,-178.21C143.5,-169.29 143.5,-159.95 143.5,-151.58"/>
<polygon fill="none" stroke="midnightblue" points="140,-178.4 143.5,-188.4 147,-178.4 140,-178.4"/>
</g>
</g>
</svg>
