<?xml version="1.0" encoding="UTF-8" standalone="no"?>
<!DOCTYPE svg PUBLIC "-//W3C//DTD SVG 1.1//EN"
 "http://www.w3.org/Graphics/SVG/1.1/DTD/svg11.dtd">
<!-- Generated by graphviz version 2.43.0 (0)
 -->
<!-- Title: FGrenadeItemDataTable Pages: 1 -->
<svg width="143pt" height="254pt"
 viewBox="0.00 0.00 143.00 254.00" xmlns="http://www.w3.org/2000/svg" xmlns:xlink="http://www.w3.org/1999/xlink">
<g id="graph0" class="graph" transform="scale(1 1) rotate(0) translate(4 250)">
<title>FGrenadeItemDataTable</title>
<!-- Node1 -->
<g id="node1" class="node">
<title>Node1</title>
<g id="a_node1"><a xlink:title=" ">
<polygon fill="#bfbfbf" stroke="black" points="0,-0.5 0,-57.5 135,-57.5 135,-0.5 0,-0.5"/>
<text text-anchor="middle" x="67.5" y="-45.5" font-family="Helvetica,sans-Serif" font-size="10.00">FGrenadeItemDataTable</text>
<polyline fill="none" stroke="black" points="0,-38.5 135,-38.5 "/>
<text text-anchor="start" x="8" y="-26.5" font-family="Helvetica,sans-Serif" font-size="10.00">+ GrenadeItemData</text>
<polyline fill="none" stroke="black" points="0,-19.5 135,-19.5 "/>
<text text-anchor="middle" x="67.5" y="-7.5" font-family="Helvetica,sans-Serif" font-size="10.00"> </text>
</a>
</g>
</g>
<!-- Node2 -->
<g id="node2" class="node">
<title>Node2</title>
<g id="a_node2"><a xlink:href="structFItemDataTable.html" target="_top" xlink:title=" ">
<polygon fill="none" stroke="black" points="20.5,-94.5 20.5,-151.5 114.5,-151.5 114.5,-94.5 20.5,-94.5"/>
<text text-anchor="middle" x="67.5" y="-139.5" font-family="Helvetica,sans-Serif" font-size="10.00">FItemDataTable</text>
<polyline fill="none" stroke="black" points="20.5,-132.5 114.5,-132.5 "/>
<text text-anchor="start" x="28.5" y="-120.5" font-family="Helvetica,sans-Serif" font-size="10.00">+ ItemData</text>
<polyline fill="none" stroke="black" points="20.5,-113.5 114.5,-113.5 "/>
<text text-anchor="middle" x="67.5" y="-101.5" font-family="Helvetica,sans-Serif" font-size="10.00"> </text>
</a>
</g>
</g>
<!-- Node2&#45;&gt;Node1 -->
<g id="edge1" class="edge">
<title>Node2&#45;&gt;Node1</title>
<path fill="none" stroke="midnightblue" d="M67.5,-84.21C67.5,-75.29 67.5,-65.95 67.5,-57.58"/>
<polygon fill="none" stroke="midnightblue" points="64,-84.4 67.5,-94.4 71,-84.4 64,-84.4"/>
</g>
<!-- Node3 -->
<g id="node3" class="node">
<title>Node3</title>
<g id="a_node3"><a xlink:title=" ">
<polygon fill="none" stroke="#bfbfbf" points="21.5,-188.5 21.5,-245.5 113.5,-245.5 113.5,-188.5 21.5,-188.5"/>
<text text-anchor="middle" x="67.5" y="-233.5" font-family="Helvetica,sans-Serif" font-size="10.00">FTableRowBase</text>
<polyline fill="none" stroke="#bfbfbf" points="21.5,-226.5 113.5,-226.5 "/>
<text text-anchor="middle" x="67.5" y="-214.5" font-family="Helvetica,sans-Serif" font-size="10.00"> </text>
<polyline fill="none" stroke="#bfbfbf" points="21.5,-207.5 113.5,-207.5 "/>
<text text-anchor="middle" x="67.5" y="-195.5" font-family="Helvetica,sans-Serif" font-size="10.00"> </text>
</a>
</g>
</g>
<!-- Node3&#45;&gt;Node2 -->
<g id="edge2" class="edge">
<title>Node3&#45;&gt;Node2</title>
<path fill="none" stroke="midnightblue" d="M67.5,-178.21C67.5,-169.29 67.5,-159.95 67.5,-151.58"/>
<polygon fill="none" stroke="midnightblue" points="64,-178.4 67.5,-188.4 71,-178.4 64,-178.4"/>
</g>
</g>
</svg>
