<?xml version="1.0" encoding="UTF-8" standalone="no"?>
<!DOCTYPE svg PUBLIC "-//W3C//DTD SVG 1.1//EN"
 "http://www.w3.org/Graphics/SVG/1.1/DTD/svg11.dtd">
<!-- Generated by graphviz version 2.43.0 (0)
 -->
<!-- Title: FWeaponItemDataTable Pages: 1 -->
<svg width="294pt" height="298pt"
 viewBox="0.00 0.00 294.00 298.00" xmlns="http://www.w3.org/2000/svg" xmlns:xlink="http://www.w3.org/1999/xlink">
<g id="graph0" class="graph" transform="scale(1 1) rotate(0) translate(4 294)">
<title>FWeaponItemDataTable</title>
<!-- Node1 -->
<g id="node1" class="node">
<title>Node1</title>
<g id="a_node1"><a xlink:title=" ">
<polygon fill="#bfbfbf" stroke="black" points="92.5,-0.5 92.5,-57.5 225.5,-57.5 225.5,-0.5 92.5,-0.5"/>
<text text-anchor="middle" x="159" y="-45.5" font-family="Helvetica,sans-Serif" font-size="10.00">FWeaponItemDataTable</text>
<polyline fill="none" stroke="black" points="92.5,-38.5 225.5,-38.5 "/>
<text text-anchor="middle" x="159" y="-26.5" font-family="Helvetica,sans-Serif" font-size="10.00"> </text>
<polyline fill="none" stroke="black" points="92.5,-19.5 225.5,-19.5 "/>
<text text-anchor="middle" x="159" y="-7.5" font-family="Helvetica,sans-Serif" font-size="10.00"> </text>
</a>
</g>
</g>
<!-- Node2 -->
<g id="node2" class="node">
<title>Node2</title>
<g id="a_node2"><a xlink:href="structFItemDataTable.html" target="_top" xlink:title=" ">
<polygon fill="none" stroke="black" points="53,-111 53,-168 147,-168 147,-111 53,-111"/>
<text text-anchor="middle" x="100" y="-156" font-family="Helvetica,sans-Serif" font-size="10.00">FItemDataTable</text>
<polyline fill="none" stroke="black" points="53,-149 147,-149 "/>
<text text-anchor="middle" x="100" y="-137" font-family="Helvetica,sans-Serif" font-size="10.00"> </text>
<polyline fill="none" stroke="black" points="53,-130 147,-130 "/>
<text text-anchor="middle" x="100" y="-118" font-family="Helvetica,sans-Serif" font-size="10.00"> </text>
</a>
</g>
</g>
<!-- Node2&#45;&gt;Node1 -->
<g id="edge1" class="edge">
<title>Node2&#45;&gt;Node1</title>
<path fill="none" stroke="midnightblue" d="M120.02,-101.68C127.87,-87.25 136.71,-70.99 143.99,-57.61"/>
<polygon fill="none" stroke="midnightblue" points="116.74,-100.38 115.04,-110.84 122.89,-103.73 116.74,-100.38"/>
</g>
<!-- Node3 -->
<g id="node3" class="node">
<title>Node3</title>
<g id="a_node3"><a xlink:title=" ">
<polygon fill="none" stroke="#bfbfbf" points="0,-227 0,-284 92,-284 92,-227 0,-227"/>
<text text-anchor="middle" x="46" y="-272" font-family="Helvetica,sans-Serif" font-size="10.00">FTableRowBase</text>
<polyline fill="none" stroke="#bfbfbf" points="0,-265 92,-265 "/>
<text text-anchor="middle" x="46" y="-253" font-family="Helvetica,sans-Serif" font-size="10.00"> </text>
<polyline fill="none" stroke="#bfbfbf" points="0,-246 92,-246 "/>
<text text-anchor="middle" x="46" y="-234" font-family="Helvetica,sans-Serif" font-size="10.00"> </text>
</a>
</g>
</g>
<!-- Node3&#45;&gt;Node2 -->
<g id="edge2" class="edge">
<title>Node3&#45;&gt;Node2</title>
<path fill="none" stroke="midnightblue" d="M63.4,-217.77C71.02,-201.69 79.81,-183.13 86.86,-168.24"/>
<polygon fill="none" stroke="midnightblue" points="60.19,-216.37 59.07,-226.9 66.52,-219.36 60.19,-216.37"/>
</g>
<!-- Node4 -->
<g id="node4" class="node">
<title>Node4</title>
<g id="a_node4"><a xlink:href="structFItemData.html" target="_top" xlink:title=" ">
<polygon fill="none" stroke="black" points="110,-221.5 110,-289.5 200,-289.5 200,-221.5 110,-221.5"/>
<text text-anchor="middle" x="155" y="-277.5" font-family="Helvetica,sans-Serif" font-size="10.00">FItemData</text>
<polyline fill="none" stroke="black" points="110,-270.5 200,-270.5 "/>
<text text-anchor="start" x="118" y="-258.5" font-family="Helvetica,sans-Serif" font-size="10.00">+ ItemName</text>
<text text-anchor="start" x="118" y="-247.5" font-family="Helvetica,sans-Serif" font-size="10.00">+ ItemNameUI</text>
<polyline fill="none" stroke="black" points="110,-240.5 200,-240.5 "/>
<text text-anchor="middle" x="155" y="-228.5" font-family="Helvetica,sans-Serif" font-size="10.00"> </text>
</a>
</g>
</g>
<!-- Node4&#45;&gt;Node2 -->
<g id="edge3" class="edge">
<title>Node4&#45;&gt;Node2</title>
<path fill="none" stroke="#404040" d="M138.94,-221.22C132.6,-208.08 125.27,-192.88 118.69,-179.25"/>
<polygon fill="none" stroke="#404040" points="118.6,-179.05 112.39,-175.38 113.38,-168.24 119.59,-171.91 118.6,-179.05"/>
<text text-anchor="middle" x="159" y="-195" font-family="Helvetica,sans-Serif" font-size="10.00"> +ItemData</text>
</g>
<!-- Node5 -->
<g id="node5" class="node">
<title>Node5</title>
<g id="a_node5"><a xlink:href="structFWeaponItemData.html" target="_top" xlink:title=" ">
<polygon fill="none" stroke="black" points="165.5,-105.5 165.5,-173.5 272.5,-173.5 272.5,-105.5 165.5,-105.5"/>
<text text-anchor="middle" x="219" y="-161.5" font-family="Helvetica,sans-Serif" font-size="10.00">FWeaponItemData</text>
<polyline fill="none" stroke="black" points="165.5,-154.5 272.5,-154.5 "/>
<text text-anchor="start" x="173.5" y="-142.5" font-family="Helvetica,sans-Serif" font-size="10.00">+ Damage</text>
<text text-anchor="start" x="173.5" y="-131.5" font-family="Helvetica,sans-Serif" font-size="10.00">+ FireRate</text>
<polyline fill="none" stroke="black" points="165.5,-124.5 272.5,-124.5 "/>
<text text-anchor="middle" x="219" y="-112.5" font-family="Helvetica,sans-Serif" font-size="10.00"> </text>
</a>
</g>
</g>
<!-- Node5&#45;&gt;Node1 -->
<g id="edge4" class="edge">
<title>Node5&#45;&gt;Node1</title>
<path fill="none" stroke="#404040" d="M200.67,-105.36C194.23,-93.71 186.95,-80.54 180.29,-68.49"/>
<polygon fill="none" stroke="#404040" points="180.2,-68.33 173.79,-65.01 174.39,-57.83 180.79,-61.14 180.2,-68.33"/>
<text text-anchor="middle" x="237.5" y="-79" font-family="Helvetica,sans-Serif" font-size="10.00"> +WeaponItemData</text>
</g>
</g>
</svg>
