<?xml version="1.0" encoding="UTF-8" standalone="no"?>
<!DOCTYPE svg PUBLIC "-//W3C//DTD SVG 1.1//EN"
 "http://www.w3.org/Graphics/SVG/1.1/DTD/svg11.dtd">
<!-- Generated by graphviz version 2.43.0 (0)
 -->
<!-- Title: FCharacterProfileTable Pages: 1 -->
<svg width="234pt" height="215pt"
 viewBox="0.00 0.00 233.50 215.00" xmlns="http://www.w3.org/2000/svg" xmlns:xlink="http://www.w3.org/1999/xlink">
<g id="graph0" class="graph" transform="scale(1 1) rotate(0) translate(4 211)">
<title>FCharacterProfileTable</title>
<!-- Node1 -->
<g id="node1" class="node">
<title>Node1</title>
<g id="a_node1"><a xlink:title=" ">
<polygon fill="#bfbfbf" stroke="black" points="44,-0.5 44,-57.5 170,-57.5 170,-0.5 44,-0.5"/>
<text text-anchor="middle" x="107" y="-45.5" font-family="Helvetica,sans-Serif" font-size="10.00">FCharacterProfileTable</text>
<polyline fill="none" stroke="black" points="44,-38.5 170,-38.5 "/>
<text text-anchor="middle" x="107" y="-26.5" font-family="Helvetica,sans-Serif" font-size="10.00"> </text>
<polyline fill="none" stroke="black" points="44,-19.5 170,-19.5 "/>
<text text-anchor="middle" x="107" y="-7.5" font-family="Helvetica,sans-Serif" font-size="10.00"> </text>
</a>
</g>
</g>
<!-- Node2 -->
<g id="node2" class="node">
<title>Node2</title>
<g id="a_node2"><a xlink:title=" ">
<polygon fill="none" stroke="#bfbfbf" points="0,-127.5 0,-184.5 92,-184.5 92,-127.5 0,-127.5"/>
<text text-anchor="middle" x="46" y="-172.5" font-family="Helvetica,sans-Serif" font-size="10.00">FTableRowBase</text>
<polyline fill="none" stroke="#bfbfbf" points="0,-165.5 92,-165.5 "/>
<text text-anchor="middle" x="46" y="-153.5" font-family="Helvetica,sans-Serif" font-size="10.00"> </text>
<polyline fill="none" stroke="#bfbfbf" points="0,-146.5 92,-146.5 "/>
<text text-anchor="middle" x="46" y="-134.5" font-family="Helvetica,sans-Serif" font-size="10.00"> </text>
</a>
</g>
</g>
<!-- Node2&#45;&gt;Node1 -->
<g id="edge1" class="edge">
<title>Node2&#45;&gt;Node1</title>
<path fill="none" stroke="midnightblue" d="M64,-118.12C73.44,-98.77 84.82,-75.45 93.5,-57.66"/>
<polygon fill="none" stroke="midnightblue" points="60.78,-116.74 59.54,-127.26 67.07,-119.81 60.78,-116.74"/>
</g>
<!-- Node3 -->
<g id="node3" class="node">
<title>Node3</title>
<g id="a_node3"><a xlink:href="structFCharacterProfile.html" target="_top" xlink:title=" ">
<polygon fill="none" stroke="black" points="110.5,-105.5 110.5,-206.5 225.5,-206.5 225.5,-105.5 110.5,-105.5"/>
<text text-anchor="middle" x="168" y="-194.5" font-family="Helvetica,sans-Serif" font-size="10.00">FCharacterProfile</text>
<polyline fill="none" stroke="black" points="110.5,-187.5 225.5,-187.5 "/>
<text text-anchor="start" x="118.5" y="-175.5" font-family="Helvetica,sans-Serif" font-size="10.00">+ CharacterName</text>
<text text-anchor="start" x="118.5" y="-164.5" font-family="Helvetica,sans-Serif" font-size="10.00">+ CharacterNameUI</text>
<text text-anchor="start" x="118.5" y="-153.5" font-family="Helvetica,sans-Serif" font-size="10.00">+ Age</text>
<text text-anchor="start" x="118.5" y="-142.5" font-family="Helvetica,sans-Serif" font-size="10.00">+ Height</text>
<text text-anchor="start" x="118.5" y="-131.5" font-family="Helvetica,sans-Serif" font-size="10.00">+ Gender</text>
<polyline fill="none" stroke="black" points="110.5,-124.5 225.5,-124.5 "/>
<text text-anchor="middle" x="168" y="-112.5" font-family="Helvetica,sans-Serif" font-size="10.00"> </text>
</a>
</g>
</g>
<!-- Node3&#45;&gt;Node1 -->
<g id="edge2" class="edge">
<title>Node3&#45;&gt;Node1</title>
<path fill="none" stroke="#404040" d="M143.72,-105.24C137.79,-93.08 131.53,-80.26 125.89,-68.71"/>
<polygon fill="none" stroke="#404040" points="125.76,-68.44 119.53,-64.8 120.5,-57.66 126.72,-61.3 125.76,-68.44"/>
<text text-anchor="middle" x="179" y="-79" font-family="Helvetica,sans-Serif" font-size="10.00"> +CharacterProfile</text>
</g>
</g>
</svg>
