<?xml version="1.0" encoding="UTF-8" standalone="no"?>
<!DOCTYPE svg PUBLIC "-//W3C//DTD SVG 1.1//EN"
 "http://www.w3.org/Graphics/SVG/1.1/DTD/svg11.dtd">
<!-- Generated by graphviz version 2.43.0 (0)
 -->
<!-- Title: FItemDataTable Pages: 1 -->
<svg width="208pt" height="182pt"
 viewBox="0.00 0.00 208.00 182.00" xmlns="http://www.w3.org/2000/svg" xmlns:xlink="http://www.w3.org/1999/xlink">
<g id="graph0" class="graph" transform="scale(1 1) rotate(0) translate(4 178)">
<title>FItemDataTable</title>
<!-- Node1 -->
<g id="node1" class="node">
<title>Node1</title>
<g id="a_node1"><a xlink:title=" ">
<polygon fill="#bfbfbf" stroke="black" points="53,-0.5 53,-57.5 147,-57.5 147,-0.5 53,-0.5"/>
<text text-anchor="middle" x="100" y="-45.5" font-family="Helvetica,sans-Serif" font-size="10.00">FItemDataTable</text>
<polyline fill="none" stroke="black" points="53,-38.5 147,-38.5 "/>
<text text-anchor="middle" x="100" y="-26.5" font-family="Helvetica,sans-Serif" font-size="10.00"> </text>
<polyline fill="none" stroke="black" points="53,-19.5 147,-19.5 "/>
<text text-anchor="middle" x="100" y="-7.5" font-family="Helvetica,sans-Serif" font-size="10.00"> </text>
</a>
</g>
</g>
<!-- Node2 -->
<g id="node2" class="node">
<title>Node2</title>
<g id="a_node2"><a xlink:title=" ">
<polygon fill="none" stroke="#bfbfbf" points="0,-111 0,-168 92,-168 92,-111 0,-111"/>
<text text-anchor="middle" x="46" y="-156" font-family="Helvetica,sans-Serif" font-size="10.00">FTableRowBase</text>
<polyline fill="none" stroke="#bfbfbf" points="0,-149 92,-149 "/>
<text text-anchor="middle" x="46" y="-137" font-family="Helvetica,sans-Serif" font-size="10.00"> </text>
<polyline fill="none" stroke="#bfbfbf" points="0,-130 92,-130 "/>
<text text-anchor="middle" x="46" y="-118" font-family="Helvetica,sans-Serif" font-size="10.00"> </text>
</a>
</g>
</g>
<!-- Node2&#45;&gt;Node1 -->
<g id="edge1" class="edge">
<title>Node2&#45;&gt;Node1</title>
<path fill="none" stroke="midnightblue" d="M64.33,-101.68C71.5,-87.25 79.6,-70.99 86.26,-57.61"/>
<polygon fill="none" stroke="midnightblue" points="61.09,-100.33 59.77,-110.84 67.36,-103.45 61.09,-100.33"/>
</g>
<!-- Node3 -->
<g id="node3" class="node">
<title>Node3</title>
<g id="a_node3"><a xlink:href="structFItemData.html" target="_top" xlink:title=" ">
<polygon fill="none" stroke="black" points="110,-105.5 110,-173.5 200,-173.5 200,-105.5 110,-105.5"/>
<text text-anchor="middle" x="155" y="-161.5" font-family="Helvetica,sans-Serif" font-size="10.00">FItemData</text>
<polyline fill="none" stroke="black" points="110,-154.5 200,-154.5 "/>
<text text-anchor="start" x="118" y="-142.5" font-family="Helvetica,sans-Serif" font-size="10.00">+ ItemName</text>
<text text-anchor="start" x="118" y="-131.5" font-family="Helvetica,sans-Serif" font-size="10.00">+ ItemNameUI</text>
<polyline fill="none" stroke="black" points="110,-124.5 200,-124.5 "/>
<text text-anchor="middle" x="155" y="-112.5" font-family="Helvetica,sans-Serif" font-size="10.00"> </text>
</a>
</g>
</g>
<!-- Node3&#45;&gt;Node1 -->
<g id="edge2" class="edge">
<title>Node3&#45;&gt;Node1</title>
<path fill="none" stroke="#404040" d="M138.2,-105.36C132.36,-93.83 125.75,-80.8 119.7,-68.86"/>
<polygon fill="none" stroke="#404040" points="119.53,-68.53 113.25,-64.99 114.11,-57.83 120.39,-61.37 119.53,-68.53"/>
<text text-anchor="middle" x="156" y="-79" font-family="Helvetica,sans-Serif" font-size="10.00"> +ItemData</text>
</g>
</g>
</svg>
