<?xml version="1.0" encoding="UTF-8" standalone="no"?>
<!DOCTYPE svg PUBLIC "-//W3C//DTD SVG 1.1//EN"
 "http://www.w3.org/Graphics/SVG/1.1/DTD/svg11.dtd">
<!-- Generated by graphviz version 2.43.0 (0)
 -->
<!-- Title: FGrenadeItemDataTable Pages: 1 -->
<svg width="303pt" height="287pt"
 viewBox="0.00 0.00 303.00 287.00" xmlns="http://www.w3.org/2000/svg" xmlns:xlink="http://www.w3.org/1999/xlink">
<g id="graph0" class="graph" transform="scale(1 1) rotate(0) translate(4 283)">
<title>FGrenadeItemDataTable</title>
<!-- Node1 -->
<g id="node1" class="node">
<title>Node1</title>
<g id="a_node1"><a xlink:title=" ">
<polygon fill="#bfbfbf" stroke="black" points="95.5,-0.5 95.5,-57.5 230.5,-57.5 230.5,-0.5 95.5,-0.5"/>
<text text-anchor="middle" x="163" y="-45.5" font-family="Helvetica,sans-Serif" font-size="10.00">FGrenadeItemDataTable</text>
<polyline fill="none" stroke="black" points="95.5,-38.5 230.5,-38.5 "/>
<text text-anchor="middle" x="163" y="-26.5" font-family="Helvetica,sans-Serif" font-size="10.00"> </text>
<polyline fill="none" stroke="black" points="95.5,-19.5 230.5,-19.5 "/>
<text text-anchor="middle" x="163" y="-7.5" font-family="Helvetica,sans-Serif" font-size="10.00"> </text>
</a>
</g>
</g>
<!-- Node2 -->
<g id="node2" class="node">
<title>Node2</title>
<g id="a_node2"><a xlink:href="structFItemDataTable.html" target="_top" xlink:title=" ">
<polygon fill="none" stroke="black" points="53,-105.5 53,-162.5 147,-162.5 147,-105.5 53,-105.5"/>
<text text-anchor="middle" x="100" y="-150.5" font-family="Helvetica,sans-Serif" font-size="10.00">FItemDataTable</text>
<polyline fill="none" stroke="black" points="53,-143.5 147,-143.5 "/>
<text text-anchor="middle" x="100" y="-131.5" font-family="Helvetica,sans-Serif" font-size="10.00"> </text>
<polyline fill="none" stroke="black" points="53,-124.5 147,-124.5 "/>
<text text-anchor="middle" x="100" y="-112.5" font-family="Helvetica,sans-Serif" font-size="10.00"> </text>
</a>
</g>
</g>
<!-- Node2&#45;&gt;Node1 -->
<g id="edge1" class="edge">
<title>Node2&#45;&gt;Node1</title>
<path fill="none" stroke="midnightblue" d="M122.16,-96.77C130.01,-83.93 138.72,-69.69 146.07,-57.68"/>
<polygon fill="none" stroke="midnightblue" points="119.11,-95.04 116.88,-105.4 125.09,-98.69 119.11,-95.04"/>
</g>
<!-- Node3 -->
<g id="node3" class="node">
<title>Node3</title>
<g id="a_node3"><a xlink:title=" ">
<polygon fill="none" stroke="#bfbfbf" points="0,-216 0,-273 92,-273 92,-216 0,-216"/>
<text text-anchor="middle" x="46" y="-261" font-family="Helvetica,sans-Serif" font-size="10.00">FTableRowBase</text>
<polyline fill="none" stroke="#bfbfbf" points="0,-254 92,-254 "/>
<text text-anchor="middle" x="46" y="-242" font-family="Helvetica,sans-Serif" font-size="10.00"> </text>
<polyline fill="none" stroke="#bfbfbf" points="0,-235 92,-235 "/>
<text text-anchor="middle" x="46" y="-223" font-family="Helvetica,sans-Serif" font-size="10.00"> </text>
</a>
</g>
</g>
<!-- Node3&#45;&gt;Node2 -->
<g id="edge2" class="edge">
<title>Node3&#45;&gt;Node2</title>
<path fill="none" stroke="midnightblue" d="M64.33,-206.68C71.5,-192.25 79.6,-175.99 86.26,-162.61"/>
<polygon fill="none" stroke="midnightblue" points="61.09,-205.33 59.77,-215.84 67.36,-208.45 61.09,-205.33"/>
</g>
<!-- Node4 -->
<g id="node4" class="node">
<title>Node4</title>
<g id="a_node4"><a xlink:href="structFItemData.html" target="_top" xlink:title=" ">
<polygon fill="none" stroke="black" points="110,-210.5 110,-278.5 200,-278.5 200,-210.5 110,-210.5"/>
<text text-anchor="middle" x="155" y="-266.5" font-family="Helvetica,sans-Serif" font-size="10.00">FItemData</text>
<polyline fill="none" stroke="black" points="110,-259.5 200,-259.5 "/>
<text text-anchor="start" x="118" y="-247.5" font-family="Helvetica,sans-Serif" font-size="10.00">+ ItemName</text>
<text text-anchor="start" x="118" y="-236.5" font-family="Helvetica,sans-Serif" font-size="10.00">+ ItemNameUI</text>
<polyline fill="none" stroke="black" points="110,-229.5 200,-229.5 "/>
<text text-anchor="middle" x="155" y="-217.5" font-family="Helvetica,sans-Serif" font-size="10.00"> </text>
</a>
</g>
</g>
<!-- Node4&#45;&gt;Node2 -->
<g id="edge3" class="edge">
<title>Node4&#45;&gt;Node2</title>
<path fill="none" stroke="#404040" d="M138.2,-210.36C132.36,-198.83 125.75,-185.8 119.7,-173.86"/>
<polygon fill="none" stroke="#404040" points="119.53,-173.53 113.25,-169.99 114.11,-162.83 120.39,-166.37 119.53,-173.53"/>
<text text-anchor="middle" x="157" y="-184" font-family="Helvetica,sans-Serif" font-size="10.00"> +ItemData</text>
</g>
<!-- Node5 -->
<g id="node5" class="node">
<title>Node5</title>
<g id="a_node5"><a xlink:href="structFGrenadeItemData.html" target="_top" xlink:title=" ">
<polygon fill="none" stroke="black" points="165.5,-105.5 165.5,-162.5 288.5,-162.5 288.5,-105.5 165.5,-105.5"/>
<text text-anchor="middle" x="227" y="-150.5" font-family="Helvetica,sans-Serif" font-size="10.00">FGrenadeItemData</text>
<polyline fill="none" stroke="black" points="165.5,-143.5 288.5,-143.5 "/>
<text text-anchor="start" x="173.5" y="-131.5" font-family="Helvetica,sans-Serif" font-size="10.00">+ DetonationDamage</text>
<polyline fill="none" stroke="black" points="165.5,-124.5 288.5,-124.5 "/>
<text text-anchor="middle" x="227" y="-112.5" font-family="Helvetica,sans-Serif" font-size="10.00"> </text>
</a>
</g>
</g>
<!-- Node5&#45;&gt;Node1 -->
<g id="edge4" class="edge">
<title>Node5&#45;&gt;Node1</title>
<path fill="none" stroke="#404040" d="M209.85,-105.4C202.75,-93.97 194.39,-80.52 186.72,-68.17"/>
<polygon fill="none" stroke="#404040" points="186.53,-67.87 179.97,-64.89 180.2,-57.68 186.76,-60.66 186.53,-67.87"/>
<text text-anchor="middle" x="245.5" y="-79" font-family="Helvetica,sans-Serif" font-size="10.00"> +GrenadeItemData</text>
</g>
</g>
</svg>
